<?xml version="1.0" encoding="utf-8" standalone="no"?>
<!DOCTYPE svg PUBLIC "-//W3C//DTD SVG 1.1//EN"
  "http://www.w3.org/Graphics/SVG/1.1/DTD/svg11.dtd">
<!-- Created with matplotlib (https://matplotlib.org/) -->
<svg height="288pt" version="1.1" viewBox="0 0 432 288" width="432pt" xmlns="http://www.w3.org/2000/svg" xmlns:xlink="http://www.w3.org/1999/xlink">
 <defs>
  <style type="text/css">
*{stroke-linecap:butt;stroke-linejoin:round;}
  </style>
 </defs>
 <g id="figure_1">
  <g id="patch_1">
   <path d="M 0 288 
L 432 288 
L 432 0 
L 0 0 
z
" style="fill:#ffffff;"/>
  </g>
  <g id="axes_1">
   <g id="patch_2">
    <path d="M 84.782 237.4 
L 406.89 237.4 
L 406.89 12.975345 
L 84.782 12.975345 
z
" style="fill:#ffffff;"/>
   </g>
   <g id="matplotlib.axis_1">
    <g id="xtick_1">
     <g id="line2d_1">
      <defs>
       <path d="M 0 0 
L 0 3.5 
" id="m51759f87fd" style="stroke:#000000;stroke-width:0.8;"/>
      </defs>
      <g>
       <use style="stroke:#000000;stroke-width:0.8;" x="84.782" xlink:href="#m51759f87fd" y="237.4"/>
      </g>
     </g>
     <g id="text_1">
      <!-- 0 -->
      <defs>
       <path d="M 31.78125 66.40625 
Q 24.171875 66.40625 20.328125 58.90625 
Q 16.5 51.421875 16.5 36.375 
Q 16.5 21.390625 20.328125 13.890625 
Q 24.171875 6.390625 31.78125 6.390625 
Q 39.453125 6.390625 43.28125 13.890625 
Q 47.125 21.390625 47.125 36.375 
Q 47.125 51.421875 43.28125 58.90625 
Q 39.453125 66.40625 31.78125 66.40625 
z
M 31.78125 74.21875 
Q 44.046875 74.21875 50.515625 64.515625 
Q 56.984375 54.828125 56.984375 36.375 
Q 56.984375 17.96875 50.515625 8.265625 
Q 44.046875 -1.421875 31.78125 -1.421875 
Q 19.53125 -1.421875 13.0625 8.265625 
Q 6.59375 17.96875 6.59375 36.375 
Q 6.59375 54.828125 13.0625 64.515625 
Q 19.53125 74.21875 31.78125 74.21875 
z
" id="DejaVuSans-48"/>
      </defs>
      <g transform="translate(80.010125 255.797656)scale(0.15 -0.15)">
       <use xlink:href="#DejaVuSans-48"/>
      </g>
     </g>
    </g>
    <g id="xtick_2">
     <g id="line2d_2">
      <g>
       <use style="stroke:#000000;stroke-width:0.8;" x="149.2036" xlink:href="#m51759f87fd" y="237.4"/>
      </g>
     </g>
     <g id="text_2">
      <!-- 20 -->
      <defs>
       <path d="M 19.1875 8.296875 
L 53.609375 8.296875 
L 53.609375 0 
L 7.328125 0 
L 7.328125 8.296875 
Q 12.9375 14.109375 22.625 23.890625 
Q 32.328125 33.6875 34.8125 36.53125 
Q 39.546875 41.84375 41.421875 45.53125 
Q 43.3125 49.21875 43.3125 52.78125 
Q 43.3125 58.59375 39.234375 62.25 
Q 35.15625 65.921875 28.609375 65.921875 
Q 23.96875 65.921875 18.8125 64.3125 
Q 13.671875 62.703125 7.8125 59.421875 
L 7.8125 69.390625 
Q 13.765625 71.78125 18.9375 73 
Q 24.125 74.21875 28.421875 74.21875 
Q 39.75 74.21875 46.484375 68.546875 
Q 53.21875 62.890625 53.21875 53.421875 
Q 53.21875 48.921875 51.53125 44.890625 
Q 49.859375 40.875 45.40625 35.40625 
Q 44.1875 33.984375 37.640625 27.21875 
Q 31.109375 20.453125 19.1875 8.296875 
z
" id="DejaVuSans-50"/>
      </defs>
      <g transform="translate(139.65985 255.797656)scale(0.15 -0.15)">
       <use xlink:href="#DejaVuSans-50"/>
       <use x="63.623047" xlink:href="#DejaVuSans-48"/>
      </g>
     </g>
    </g>
    <g id="xtick_3">
     <g id="line2d_3">
      <g>
       <use style="stroke:#000000;stroke-width:0.8;" x="213.6252" xlink:href="#m51759f87fd" y="237.4"/>
      </g>
     </g>
     <g id="text_3">
      <!-- 40 -->
      <defs>
       <path d="M 37.796875 64.3125 
L 12.890625 25.390625 
L 37.796875 25.390625 
z
M 35.203125 72.90625 
L 47.609375 72.90625 
L 47.609375 25.390625 
L 58.015625 25.390625 
L 58.015625 17.1875 
L 47.609375 17.1875 
L 47.609375 0 
L 37.796875 0 
L 37.796875 17.1875 
L 4.890625 17.1875 
L 4.890625 26.703125 
z
" id="DejaVuSans-52"/>
      </defs>
      <g transform="translate(204.08145 255.797656)scale(0.15 -0.15)">
       <use xlink:href="#DejaVuSans-52"/>
       <use x="63.623047" xlink:href="#DejaVuSans-48"/>
      </g>
     </g>
    </g>
    <g id="xtick_4">
     <g id="line2d_4">
      <g>
       <use style="stroke:#000000;stroke-width:0.8;" x="278.0468" xlink:href="#m51759f87fd" y="237.4"/>
      </g>
     </g>
     <g id="text_4">
      <!-- 60 -->
      <defs>
       <path d="M 33.015625 40.375 
Q 26.375 40.375 22.484375 35.828125 
Q 18.609375 31.296875 18.609375 23.390625 
Q 18.609375 15.53125 22.484375 10.953125 
Q 26.375 6.390625 33.015625 6.390625 
Q 39.65625 6.390625 43.53125 10.953125 
Q 47.40625 15.53125 47.40625 23.390625 
Q 47.40625 31.296875 43.53125 35.828125 
Q 39.65625 40.375 33.015625 40.375 
z
M 52.59375 71.296875 
L 52.59375 62.3125 
Q 48.875 64.0625 45.09375 64.984375 
Q 41.3125 65.921875 37.59375 65.921875 
Q 27.828125 65.921875 22.671875 59.328125 
Q 17.53125 52.734375 16.796875 39.40625 
Q 19.671875 43.65625 24.015625 45.921875 
Q 28.375 48.1875 33.59375 48.1875 
Q 44.578125 48.1875 50.953125 41.515625 
Q 57.328125 34.859375 57.328125 23.390625 
Q 57.328125 12.15625 50.6875 5.359375 
Q 44.046875 -1.421875 33.015625 -1.421875 
Q 20.359375 -1.421875 13.671875 8.265625 
Q 6.984375 17.96875 6.984375 36.375 
Q 6.984375 53.65625 15.1875 63.9375 
Q 23.390625 74.21875 37.203125 74.21875 
Q 40.921875 74.21875 44.703125 73.484375 
Q 48.484375 72.75 52.59375 71.296875 
z
" id="DejaVuSans-54"/>
      </defs>
      <g transform="translate(268.50305 255.797656)scale(0.15 -0.15)">
       <use xlink:href="#DejaVuSans-54"/>
       <use x="63.623047" xlink:href="#DejaVuSans-48"/>
      </g>
     </g>
    </g>
    <g id="xtick_5">
     <g id="line2d_5">
      <g>
       <use style="stroke:#000000;stroke-width:0.8;" x="342.4684" xlink:href="#m51759f87fd" y="237.4"/>
      </g>
     </g>
     <g id="text_5">
      <!-- 80 -->
      <defs>
       <path d="M 31.78125 34.625 
Q 24.75 34.625 20.71875 30.859375 
Q 16.703125 27.09375 16.703125 20.515625 
Q 16.703125 13.921875 20.71875 10.15625 
Q 24.75 6.390625 31.78125 6.390625 
Q 38.8125 6.390625 42.859375 10.171875 
Q 46.921875 13.96875 46.921875 20.515625 
Q 46.921875 27.09375 42.890625 30.859375 
Q 38.875 34.625 31.78125 34.625 
z
M 21.921875 38.8125 
Q 15.578125 40.375 12.03125 44.71875 
Q 8.5 49.078125 8.5 55.328125 
Q 8.5 64.0625 14.71875 69.140625 
Q 20.953125 74.21875 31.78125 74.21875 
Q 42.671875 74.21875 48.875 69.140625 
Q 55.078125 64.0625 55.078125 55.328125 
Q 55.078125 49.078125 51.53125 44.71875 
Q 48 40.375 41.703125 38.8125 
Q 48.828125 37.15625 52.796875 32.3125 
Q 56.78125 27.484375 56.78125 20.515625 
Q 56.78125 9.90625 50.3125 4.234375 
Q 43.84375 -1.421875 31.78125 -1.421875 
Q 19.734375 -1.421875 13.25 4.234375 
Q 6.78125 9.90625 6.78125 20.515625 
Q 6.78125 27.484375 10.78125 32.3125 
Q 14.796875 37.15625 21.921875 38.8125 
z
M 18.3125 54.390625 
Q 18.3125 48.734375 21.84375 45.5625 
Q 25.390625 42.390625 31.78125 42.390625 
Q 38.140625 42.390625 41.71875 45.5625 
Q 45.3125 48.734375 45.3125 54.390625 
Q 45.3125 60.0625 41.71875 63.234375 
Q 38.140625 66.40625 31.78125 66.40625 
Q 25.390625 66.40625 21.84375 63.234375 
Q 18.3125 60.0625 18.3125 54.390625 
z
" id="DejaVuSans-56"/>
      </defs>
      <g transform="translate(332.92465 255.797656)scale(0.15 -0.15)">
       <use xlink:href="#DejaVuSans-56"/>
       <use x="63.623047" xlink:href="#DejaVuSans-48"/>
      </g>
     </g>
    </g>
    <g id="xtick_6">
     <g id="line2d_6">
      <g>
       <use style="stroke:#000000;stroke-width:0.8;" x="406.89" xlink:href="#m51759f87fd" y="237.4"/>
      </g>
     </g>
     <g id="text_6">
      <!-- 100 -->
      <defs>
       <path d="M 12.40625 8.296875 
L 28.515625 8.296875 
L 28.515625 63.921875 
L 10.984375 60.40625 
L 10.984375 69.390625 
L 28.421875 72.90625 
L 38.28125 72.90625 
L 38.28125 8.296875 
L 54.390625 8.296875 
L 54.390625 0 
L 12.40625 0 
z
" id="DejaVuSans-49"/>
      </defs>
      <g transform="translate(392.574375 255.797656)scale(0.15 -0.15)">
       <use xlink:href="#DejaVuSans-49"/>
       <use x="63.623047" xlink:href="#DejaVuSans-48"/>
       <use x="127.246094" xlink:href="#DejaVuSans-48"/>
      </g>
     </g>
    </g>
    <g id="text_7">
     <!-- Loading step -->
     <defs>
      <path d="M 9.8125 72.90625 
L 19.671875 72.90625 
L 19.671875 8.296875 
L 55.171875 8.296875 
L 55.171875 0 
L 9.8125 0 
z
" id="DejaVuSans-76"/>
      <path d="M 30.609375 48.390625 
Q 23.390625 48.390625 19.1875 42.75 
Q 14.984375 37.109375 14.984375 27.296875 
Q 14.984375 17.484375 19.15625 11.84375 
Q 23.34375 6.203125 30.609375 6.203125 
Q 37.796875 6.203125 41.984375 11.859375 
Q 46.1875 17.53125 46.1875 27.296875 
Q 46.1875 37.015625 41.984375 42.703125 
Q 37.796875 48.390625 30.609375 48.390625 
z
M 30.609375 56 
Q 42.328125 56 49.015625 48.375 
Q 55.71875 40.765625 55.71875 27.296875 
Q 55.71875 13.875 49.015625 6.21875 
Q 42.328125 -1.421875 30.609375 -1.421875 
Q 18.84375 -1.421875 12.171875 6.21875 
Q 5.515625 13.875 5.515625 27.296875 
Q 5.515625 40.765625 12.171875 48.375 
Q 18.84375 56 30.609375 56 
z
" id="DejaVuSans-111"/>
      <path d="M 34.28125 27.484375 
Q 23.390625 27.484375 19.1875 25 
Q 14.984375 22.515625 14.984375 16.5 
Q 14.984375 11.71875 18.140625 8.90625 
Q 21.296875 6.109375 26.703125 6.109375 
Q 34.1875 6.109375 38.703125 11.40625 
Q 43.21875 16.703125 43.21875 25.484375 
L 43.21875 27.484375 
z
M 52.203125 31.203125 
L 52.203125 0 
L 43.21875 0 
L 43.21875 8.296875 
Q 40.140625 3.328125 35.546875 0.953125 
Q 30.953125 -1.421875 24.3125 -1.421875 
Q 15.921875 -1.421875 10.953125 3.296875 
Q 6 8.015625 6 15.921875 
Q 6 25.140625 12.171875 29.828125 
Q 18.359375 34.515625 30.609375 34.515625 
L 43.21875 34.515625 
L 43.21875 35.40625 
Q 43.21875 41.609375 39.140625 45 
Q 35.0625 48.390625 27.6875 48.390625 
Q 23 48.390625 18.546875 47.265625 
Q 14.109375 46.140625 10.015625 43.890625 
L 10.015625 52.203125 
Q 14.9375 54.109375 19.578125 55.046875 
Q 24.21875 56 28.609375 56 
Q 40.484375 56 46.34375 49.84375 
Q 52.203125 43.703125 52.203125 31.203125 
z
" id="DejaVuSans-97"/>
      <path d="M 45.40625 46.390625 
L 45.40625 75.984375 
L 54.390625 75.984375 
L 54.390625 0 
L 45.40625 0 
L 45.40625 8.203125 
Q 42.578125 3.328125 38.25 0.953125 
Q 33.9375 -1.421875 27.875 -1.421875 
Q 17.96875 -1.421875 11.734375 6.484375 
Q 5.515625 14.40625 5.515625 27.296875 
Q 5.515625 40.1875 11.734375 48.09375 
Q 17.96875 56 27.875 56 
Q 33.9375 56 38.25 53.625 
Q 42.578125 51.265625 45.40625 46.390625 
z
M 14.796875 27.296875 
Q 14.796875 17.390625 18.875 11.75 
Q 22.953125 6.109375 30.078125 6.109375 
Q 37.203125 6.109375 41.296875 11.75 
Q 45.40625 17.390625 45.40625 27.296875 
Q 45.40625 37.203125 41.296875 42.84375 
Q 37.203125 48.484375 30.078125 48.484375 
Q 22.953125 48.484375 18.875 42.84375 
Q 14.796875 37.203125 14.796875 27.296875 
z
" id="DejaVuSans-100"/>
      <path d="M 9.421875 54.6875 
L 18.40625 54.6875 
L 18.40625 0 
L 9.421875 0 
z
M 9.421875 75.984375 
L 18.40625 75.984375 
L 18.40625 64.59375 
L 9.421875 64.59375 
z
" id="DejaVuSans-105"/>
      <path d="M 54.890625 33.015625 
L 54.890625 0 
L 45.90625 0 
L 45.90625 32.71875 
Q 45.90625 40.484375 42.875 44.328125 
Q 39.84375 48.1875 33.796875 48.1875 
Q 26.515625 48.1875 22.3125 43.546875 
Q 18.109375 38.921875 18.109375 30.90625 
L 18.109375 0 
L 9.078125 0 
L 9.078125 54.6875 
L 18.109375 54.6875 
L 18.109375 46.1875 
Q 21.34375 51.125 25.703125 53.5625 
Q 30.078125 56 35.796875 56 
Q 45.21875 56 50.046875 50.171875 
Q 54.890625 44.34375 54.890625 33.015625 
z
" id="DejaVuSans-110"/>
      <path d="M 45.40625 27.984375 
Q 45.40625 37.75 41.375 43.109375 
Q 37.359375 48.484375 30.078125 48.484375 
Q 22.859375 48.484375 18.828125 43.109375 
Q 14.796875 37.75 14.796875 27.984375 
Q 14.796875 18.265625 18.828125 12.890625 
Q 22.859375 7.515625 30.078125 7.515625 
Q 37.359375 7.515625 41.375 12.890625 
Q 45.40625 18.265625 45.40625 27.984375 
z
M 54.390625 6.78125 
Q 54.390625 -7.171875 48.1875 -13.984375 
Q 42 -20.796875 29.203125 -20.796875 
Q 24.46875 -20.796875 20.265625 -20.09375 
Q 16.0625 -19.390625 12.109375 -17.921875 
L 12.109375 -9.1875 
Q 16.0625 -11.328125 19.921875 -12.34375 
Q 23.78125 -13.375 27.78125 -13.375 
Q 36.625 -13.375 41.015625 -8.765625 
Q 45.40625 -4.15625 45.40625 5.171875 
L 45.40625 9.625 
Q 42.625 4.78125 38.28125 2.390625 
Q 33.9375 0 27.875 0 
Q 17.828125 0 11.671875 7.65625 
Q 5.515625 15.328125 5.515625 27.984375 
Q 5.515625 40.671875 11.671875 48.328125 
Q 17.828125 56 27.875 56 
Q 33.9375 56 38.28125 53.609375 
Q 42.625 51.21875 45.40625 46.390625 
L 45.40625 54.6875 
L 54.390625 54.6875 
z
" id="DejaVuSans-103"/>
      <path id="DejaVuSans-32"/>
      <path d="M 44.28125 53.078125 
L 44.28125 44.578125 
Q 40.484375 46.53125 36.375 47.5 
Q 32.28125 48.484375 27.875 48.484375 
Q 21.1875 48.484375 17.84375 46.4375 
Q 14.5 44.390625 14.5 40.28125 
Q 14.5 37.15625 16.890625 35.375 
Q 19.28125 33.59375 26.515625 31.984375 
L 29.59375 31.296875 
Q 39.15625 29.25 43.1875 25.515625 
Q 47.21875 21.78125 47.21875 15.09375 
Q 47.21875 7.46875 41.1875 3.015625 
Q 35.15625 -1.421875 24.609375 -1.421875 
Q 20.21875 -1.421875 15.453125 -0.5625 
Q 10.6875 0.296875 5.421875 2 
L 5.421875 11.28125 
Q 10.40625 8.6875 15.234375 7.390625 
Q 20.0625 6.109375 24.8125 6.109375 
Q 31.15625 6.109375 34.5625 8.28125 
Q 37.984375 10.453125 37.984375 14.40625 
Q 37.984375 18.0625 35.515625 20.015625 
Q 33.0625 21.96875 24.703125 23.78125 
L 21.578125 24.515625 
Q 13.234375 26.265625 9.515625 29.90625 
Q 5.8125 33.546875 5.8125 39.890625 
Q 5.8125 47.609375 11.28125 51.796875 
Q 16.75 56 26.8125 56 
Q 31.78125 56 36.171875 55.265625 
Q 40.578125 54.546875 44.28125 53.078125 
z
" id="DejaVuSans-115"/>
      <path d="M 18.3125 70.21875 
L 18.3125 54.6875 
L 36.8125 54.6875 
L 36.8125 47.703125 
L 18.3125 47.703125 
L 18.3125 18.015625 
Q 18.3125 11.328125 20.140625 9.421875 
Q 21.96875 7.515625 27.59375 7.515625 
L 36.8125 7.515625 
L 36.8125 0 
L 27.59375 0 
Q 17.1875 0 13.234375 3.875 
Q 9.28125 7.765625 9.28125 18.015625 
L 9.28125 47.703125 
L 2.6875 47.703125 
L 2.6875 54.6875 
L 9.28125 54.6875 
L 9.28125 70.21875 
z
" id="DejaVuSans-116"/>
      <path d="M 56.203125 29.59375 
L 56.203125 25.203125 
L 14.890625 25.203125 
Q 15.484375 15.921875 20.484375 11.0625 
Q 25.484375 6.203125 34.421875 6.203125 
Q 39.59375 6.203125 44.453125 7.46875 
Q 49.3125 8.734375 54.109375 11.28125 
L 54.109375 2.78125 
Q 49.265625 0.734375 44.1875 -0.34375 
Q 39.109375 -1.421875 33.890625 -1.421875 
Q 20.796875 -1.421875 13.15625 6.1875 
Q 5.515625 13.8125 5.515625 26.8125 
Q 5.515625 40.234375 12.765625 48.109375 
Q 20.015625 56 32.328125 56 
Q 43.359375 56 49.78125 48.890625 
Q 56.203125 41.796875 56.203125 29.59375 
z
M 47.21875 32.234375 
Q 47.125 39.59375 43.09375 43.984375 
Q 39.0625 48.390625 32.421875 48.390625 
Q 24.90625 48.390625 20.390625 44.140625 
Q 15.875 39.890625 15.1875 32.171875 
z
" id="DejaVuSans-101"/>
      <path d="M 18.109375 8.203125 
L 18.109375 -20.796875 
L 9.078125 -20.796875 
L 9.078125 54.6875 
L 18.109375 54.6875 
L 18.109375 46.390625 
Q 20.953125 51.265625 25.265625 53.625 
Q 29.59375 56 35.59375 56 
Q 45.5625 56 51.78125 48.09375 
Q 58.015625 40.1875 58.015625 27.296875 
Q 58.015625 14.40625 51.78125 6.484375 
Q 45.5625 -1.421875 35.59375 -1.421875 
Q 29.59375 -1.421875 25.265625 0.953125 
Q 20.953125 3.328125 18.109375 8.203125 
z
M 48.6875 27.296875 
Q 48.6875 37.203125 44.609375 42.84375 
Q 40.53125 48.484375 33.40625 48.484375 
Q 26.265625 48.484375 22.1875 42.84375 
Q 18.109375 37.203125 18.109375 27.296875 
Q 18.109375 17.390625 22.1875 11.75 
Q 26.265625 6.109375 33.40625 6.109375 
Q 40.53125 6.109375 44.609375 11.75 
Q 48.6875 17.390625 48.6875 27.296875 
z
" id="DejaVuSans-112"/>
     </defs>
     <g transform="translate(197.506703 274.314844)scale(0.15 -0.15)">
      <use xlink:href="#DejaVuSans-76"/>
      <use x="55.697266" xlink:href="#DejaVuSans-111"/>
      <use x="116.878906" xlink:href="#DejaVuSans-97"/>
      <use x="178.158203" xlink:href="#DejaVuSans-100"/>
      <use x="241.634766" xlink:href="#DejaVuSans-105"/>
      <use x="269.417969" xlink:href="#DejaVuSans-110"/>
      <use x="332.796875" xlink:href="#DejaVuSans-103"/>
      <use x="396.273438" xlink:href="#DejaVuSans-32"/>
      <use x="428.060547" xlink:href="#DejaVuSans-115"/>
      <use x="480.160156" xlink:href="#DejaVuSans-116"/>
      <use x="519.369141" xlink:href="#DejaVuSans-101"/>
      <use x="580.892578" xlink:href="#DejaVuSans-112"/>
     </g>
    </g>
   </g>
   <g id="matplotlib.axis_2">
    <g id="ytick_1">
     <g id="line2d_7">
      <defs>
       <path d="M 0 0 
L -3.5 0 
" id="mcd7d8610dd" style="stroke:#000000;stroke-width:0.8;"/>
      </defs>
      <g>
       <use style="stroke:#000000;stroke-width:0.8;" x="84.782" xlink:href="#mcd7d8610dd" y="213.400227"/>
      </g>
     </g>
     <g id="text_8">
      <!-- −0.16 -->
      <defs>
       <path d="M 10.59375 35.5 
L 73.1875 35.5 
L 73.1875 27.203125 
L 10.59375 27.203125 
z
" id="DejaVuSans-8722"/>
       <path d="M 10.6875 12.40625 
L 21 12.40625 
L 21 0 
L 10.6875 0 
z
" id="DejaVuSans-46"/>
      </defs>
      <g transform="translate(31.814031 219.099055)scale(0.15 -0.15)">
       <use xlink:href="#DejaVuSans-8722"/>
       <use x="83.789062" xlink:href="#DejaVuSans-48"/>
       <use x="147.412109" xlink:href="#DejaVuSans-46"/>
       <use x="179.199219" xlink:href="#DejaVuSans-49"/>
       <use x="242.822266" xlink:href="#DejaVuSans-54"/>
      </g>
     </g>
    </g>
    <g id="ytick_2">
     <g id="line2d_8">
      <g>
       <use style="stroke:#000000;stroke-width:0.8;" x="84.782" xlink:href="#mcd7d8610dd" y="164.200939"/>
      </g>
     </g>
     <g id="text_9">
      <!-- −0.13 -->
      <defs>
       <path d="M 40.578125 39.3125 
Q 47.65625 37.796875 51.625 33 
Q 55.609375 28.21875 55.609375 21.1875 
Q 55.609375 10.40625 48.1875 4.484375 
Q 40.765625 -1.421875 27.09375 -1.421875 
Q 22.515625 -1.421875 17.65625 -0.515625 
Q 12.796875 0.390625 7.625 2.203125 
L 7.625 11.71875 
Q 11.71875 9.328125 16.59375 8.109375 
Q 21.484375 6.890625 26.8125 6.890625 
Q 36.078125 6.890625 40.9375 10.546875 
Q 45.796875 14.203125 45.796875 21.1875 
Q 45.796875 27.640625 41.28125 31.265625 
Q 36.765625 34.90625 28.71875 34.90625 
L 20.21875 34.90625 
L 20.21875 43.015625 
L 29.109375 43.015625 
Q 36.375 43.015625 40.234375 45.921875 
Q 44.09375 48.828125 44.09375 54.296875 
Q 44.09375 59.90625 40.109375 62.90625 
Q 36.140625 65.921875 28.71875 65.921875 
Q 24.65625 65.921875 20.015625 65.03125 
Q 15.375 64.15625 9.8125 62.3125 
L 9.8125 71.09375 
Q 15.4375 72.65625 20.34375 73.4375 
Q 25.25 74.21875 29.59375 74.21875 
Q 40.828125 74.21875 47.359375 69.109375 
Q 53.90625 64.015625 53.90625 55.328125 
Q 53.90625 49.265625 50.4375 45.09375 
Q 46.96875 40.921875 40.578125 39.3125 
z
" id="DejaVuSans-51"/>
      </defs>
      <g transform="translate(31.814031 169.899767)scale(0.15 -0.15)">
       <use xlink:href="#DejaVuSans-8722"/>
       <use x="83.789062" xlink:href="#DejaVuSans-48"/>
       <use x="147.412109" xlink:href="#DejaVuSans-46"/>
       <use x="179.199219" xlink:href="#DejaVuSans-49"/>
       <use x="242.822266" xlink:href="#DejaVuSans-51"/>
      </g>
     </g>
    </g>
    <g id="ytick_3">
     <g id="line2d_9">
      <g>
       <use style="stroke:#000000;stroke-width:0.8;" x="84.782" xlink:href="#mcd7d8610dd" y="115.00165"/>
      </g>
     </g>
     <g id="text_10">
      <!-- −0.10 -->
      <g transform="translate(31.814031 120.700478)scale(0.15 -0.15)">
       <use xlink:href="#DejaVuSans-8722"/>
       <use x="83.789062" xlink:href="#DejaVuSans-48"/>
       <use x="147.412109" xlink:href="#DejaVuSans-46"/>
       <use x="179.199219" xlink:href="#DejaVuSans-49"/>
       <use x="242.822266" xlink:href="#DejaVuSans-48"/>
      </g>
     </g>
    </g>
    <g id="ytick_4">
     <g id="line2d_10">
      <g>
       <use style="stroke:#000000;stroke-width:0.8;" x="84.782" xlink:href="#mcd7d8610dd" y="65.802362"/>
      </g>
     </g>
     <g id="text_11">
      <!-- −0.07 -->
      <defs>
       <path d="M 8.203125 72.90625 
L 55.078125 72.90625 
L 55.078125 68.703125 
L 28.609375 0 
L 18.3125 0 
L 43.21875 64.59375 
L 8.203125 64.59375 
z
" id="DejaVuSans-55"/>
      </defs>
      <g transform="translate(31.814031 71.50119)scale(0.15 -0.15)">
       <use xlink:href="#DejaVuSans-8722"/>
       <use x="83.789062" xlink:href="#DejaVuSans-48"/>
       <use x="147.412109" xlink:href="#DejaVuSans-46"/>
       <use x="179.199219" xlink:href="#DejaVuSans-48"/>
       <use x="242.822266" xlink:href="#DejaVuSans-55"/>
      </g>
     </g>
    </g>
    <g id="ytick_5">
     <g id="line2d_11">
      <g>
       <use style="stroke:#000000;stroke-width:0.8;" x="84.782" xlink:href="#mcd7d8610dd" y="16.603073"/>
      </g>
     </g>
     <g id="text_12">
      <!-- −0.04 -->
      <g transform="translate(31.814031 22.301901)scale(0.15 -0.15)">
       <use xlink:href="#DejaVuSans-8722"/>
       <use x="83.789062" xlink:href="#DejaVuSans-48"/>
       <use x="147.412109" xlink:href="#DejaVuSans-46"/>
       <use x="179.199219" xlink:href="#DejaVuSans-48"/>
       <use x="242.822266" xlink:href="#DejaVuSans-52"/>
      </g>
     </g>
    </g>
    <g id="text_13">
     <!-- $\sigma_{11}$ (MPa) -->
     <defs>
      <path d="M 34.671875 47.5625 
Q 27.25 47.5625 22.21875 42.1875 
Q 16.890625 36.578125 15.140625 27.296875 
Q 13.1875 17.484375 16.3125 11.8125 
Q 19.390625 6.203125 26.65625 6.203125 
Q 33.84375 6.203125 39.109375 11.859375 
Q 44.4375 17.53125 46.34375 27.296875 
Q 48.046875 36.234375 45.015625 42.1875 
Q 42.1875 47.5625 34.671875 47.5625 
z
M 36.078125 54.734375 
L 65.921875 54.6875 
L 64.15625 45.703125 
L 54.109375 45.703125 
Q 57.90625 38.09375 55.859375 27.296875 
Q 53.21875 13.875 45.0625 6.25 
Q 36.859375 -1.421875 25.140625 -1.421875 
Q 13.375 -1.421875 8.203125 6.25 
Q 3.03125 13.875 5.671875 27.296875 
Q 8.25 40.765625 16.40625 48.390625 
Q 23.1875 54.734375 36.078125 54.734375 
z
" id="DejaVuSans-Oblique-963"/>
      <path d="M 31 75.875 
Q 24.46875 64.65625 21.28125 53.65625 
Q 18.109375 42.671875 18.109375 31.390625 
Q 18.109375 20.125 21.3125 9.0625 
Q 24.515625 -2 31 -13.1875 
L 23.1875 -13.1875 
Q 15.875 -1.703125 12.234375 9.375 
Q 8.59375 20.453125 8.59375 31.390625 
Q 8.59375 42.28125 12.203125 53.3125 
Q 15.828125 64.359375 23.1875 75.875 
z
" id="DejaVuSans-40"/>
      <path d="M 9.8125 72.90625 
L 24.515625 72.90625 
L 43.109375 23.296875 
L 61.8125 72.90625 
L 76.515625 72.90625 
L 76.515625 0 
L 66.890625 0 
L 66.890625 64.015625 
L 48.09375 14.015625 
L 38.1875 14.015625 
L 19.390625 64.015625 
L 19.390625 0 
L 9.8125 0 
z
" id="DejaVuSans-77"/>
      <path d="M 19.671875 64.796875 
L 19.671875 37.40625 
L 32.078125 37.40625 
Q 38.96875 37.40625 42.71875 40.96875 
Q 46.484375 44.53125 46.484375 51.125 
Q 46.484375 57.671875 42.71875 61.234375 
Q 38.96875 64.796875 32.078125 64.796875 
z
M 9.8125 72.90625 
L 32.078125 72.90625 
Q 44.34375 72.90625 50.609375 67.359375 
Q 56.890625 61.8125 56.890625 51.125 
Q 56.890625 40.328125 50.609375 34.8125 
Q 44.34375 29.296875 32.078125 29.296875 
L 19.671875 29.296875 
L 19.671875 0 
L 9.8125 0 
z
" id="DejaVuSans-80"/>
      <path d="M 8.015625 75.875 
L 15.828125 75.875 
Q 23.140625 64.359375 26.78125 53.3125 
Q 30.421875 42.28125 30.421875 31.390625 
Q 30.421875 20.453125 26.78125 9.375 
Q 23.140625 -1.703125 15.828125 -13.1875 
L 8.015625 -13.1875 
Q 14.5 -2 17.703125 9.0625 
Q 20.90625 20.125 20.90625 31.390625 
Q 20.90625 42.671875 17.703125 53.65625 
Q 14.5 64.65625 8.015625 75.875 
z
" id="DejaVuSans-41"/>
     </defs>
     <g transform="translate(24.6945 160.662673)rotate(-90)scale(0.15 -0.15)">
      <use transform="translate(0 0.125)" xlink:href="#DejaVuSans-Oblique-963"/>
      <use transform="translate(63.378906 -16.28125)scale(0.7)" xlink:href="#DejaVuSans-49"/>
      <use transform="translate(107.915039 -16.28125)scale(0.7)" xlink:href="#DejaVuSans-49"/>
      <use transform="translate(155.185547 0.125)" xlink:href="#DejaVuSans-32"/>
      <use transform="translate(186.972656 0.125)" xlink:href="#DejaVuSans-40"/>
      <use transform="translate(225.986328 0.125)" xlink:href="#DejaVuSans-77"/>
      <use transform="translate(312.265625 0.125)" xlink:href="#DejaVuSans-80"/>
      <use transform="translate(372.568359 0.125)" xlink:href="#DejaVuSans-97"/>
      <use transform="translate(433.847656 0.125)" xlink:href="#DejaVuSans-41"/>
     </g>
    </g>
   </g>
   <g id="line2d_12">
    <path clip-path="url(#p7fc5d03755)" d="M 88.00308 204.385036 
L 94.44524 201.808595 
L 100.8874 195.400174 
L 107.32956 186.32958 
L 113.77172 175.693907 
L 120.21388 164.380493 
L 126.65604 153.026397 
L 133.0982 142.039559 
L 139.54036 131.637845 
L 145.98252 121.881044 
L 152.42468 112.69994 
L 158.86684 103.944554 
L 165.309 95.467176 
L 171.75116 87.230862 
L 178.19332 79.405774 
L 184.63548 72.405184 
L 191.07764 66.827791 
L 197.5198 63.309494 
L 203.96196 62.329293 
L 210.40412 64.040498 
L 216.84628 68.197007 
L 223.28844 74.212064 
L 229.7306 81.335563 
L 236.17276 88.885737 
L 242.61492 96.444448 
L 249.05708 103.936207 
L 255.49924 111.557425 
L 261.9414 119.584602 
L 268.38356 128.140441 
L 274.82572 137.011481 
L 281.26788 145.584674 
L 287.71004 152.918593 
L 294.1522 157.915147 
L 300.59436 159.532681 
L 307.03652 156.98778 
L 313.47868 149.917546 
L 319.92084 138.49515 
L 326.363 123.493963 
L 332.80516 106.28188 
L 339.24732 88.714541 
L 345.68948 72.904867 
L 352.13164 60.882482 
L 358.5738 54.208199 
L 365.01596 53.647689 
L 371.45812 59.00838 
L 377.90028 69.197602 
L 384.34244 82.484198 
L 390.7846 96.874871 
L 397.22676 110.483586 
L 403.66892 121.792043 
" style="fill:none;stroke:#1f77b4;stroke-linecap:square;stroke-width:1.5;"/>
    <defs>
     <path d="M 0 2 
C 0.530406 2 1.03916 1.789267 1.414214 1.414214 
C 1.789267 1.03916 2 0.530406 2 0 
C 2 -0.530406 1.789267 -1.03916 1.414214 -1.414214 
C 1.03916 -1.789267 0.530406 -2 0 -2 
C -0.530406 -2 -1.03916 -1.789267 -1.414214 -1.414214 
C -1.789267 -1.03916 -2 -0.530406 -2 0 
C -2 0.530406 -1.789267 1.03916 -1.414214 1.414214 
C -1.03916 1.789267 -0.530406 2 0 2 
z
" id="m6e907f5ea5" style="stroke:#1f77b4;"/>
    </defs>
    <g clip-path="url(#p7fc5d03755)">
     <use style="fill:#1f77b4;stroke:#1f77b4;" x="88.00308" xlink:href="#m6e907f5ea5" y="204.385036"/>
     <use style="fill:#1f77b4;stroke:#1f77b4;" x="94.44524" xlink:href="#m6e907f5ea5" y="201.808595"/>
     <use style="fill:#1f77b4;stroke:#1f77b4;" x="100.8874" xlink:href="#m6e907f5ea5" y="195.400174"/>
     <use style="fill:#1f77b4;stroke:#1f77b4;" x="107.32956" xlink:href="#m6e907f5ea5" y="186.32958"/>
     <use style="fill:#1f77b4;stroke:#1f77b4;" x="113.77172" xlink:href="#m6e907f5ea5" y="175.693907"/>
     <use style="fill:#1f77b4;stroke:#1f77b4;" x="120.21388" xlink:href="#m6e907f5ea5" y="164.380493"/>
     <use style="fill:#1f77b4;stroke:#1f77b4;" x="126.65604" xlink:href="#m6e907f5ea5" y="153.026397"/>
     <use style="fill:#1f77b4;stroke:#1f77b4;" x="133.0982" xlink:href="#m6e907f5ea5" y="142.039559"/>
     <use style="fill:#1f77b4;stroke:#1f77b4;" x="139.54036" xlink:href="#m6e907f5ea5" y="131.637845"/>
     <use style="fill:#1f77b4;stroke:#1f77b4;" x="145.98252" xlink:href="#m6e907f5ea5" y="121.881044"/>
     <use style="fill:#1f77b4;stroke:#1f77b4;" x="152.42468" xlink:href="#m6e907f5ea5" y="112.69994"/>
     <use style="fill:#1f77b4;stroke:#1f77b4;" x="158.86684" xlink:href="#m6e907f5ea5" y="103.944554"/>
     <use style="fill:#1f77b4;stroke:#1f77b4;" x="165.309" xlink:href="#m6e907f5ea5" y="95.467176"/>
     <use style="fill:#1f77b4;stroke:#1f77b4;" x="171.75116" xlink:href="#m6e907f5ea5" y="87.230862"/>
     <use style="fill:#1f77b4;stroke:#1f77b4;" x="178.19332" xlink:href="#m6e907f5ea5" y="79.405774"/>
     <use style="fill:#1f77b4;stroke:#1f77b4;" x="184.63548" xlink:href="#m6e907f5ea5" y="72.405184"/>
     <use style="fill:#1f77b4;stroke:#1f77b4;" x="191.07764" xlink:href="#m6e907f5ea5" y="66.827791"/>
     <use style="fill:#1f77b4;stroke:#1f77b4;" x="197.5198" xlink:href="#m6e907f5ea5" y="63.309494"/>
     <use style="fill:#1f77b4;stroke:#1f77b4;" x="203.96196" xlink:href="#m6e907f5ea5" y="62.329293"/>
     <use style="fill:#1f77b4;stroke:#1f77b4;" x="210.40412" xlink:href="#m6e907f5ea5" y="64.040498"/>
     <use style="fill:#1f77b4;stroke:#1f77b4;" x="216.84628" xlink:href="#m6e907f5ea5" y="68.197007"/>
     <use style="fill:#1f77b4;stroke:#1f77b4;" x="223.28844" xlink:href="#m6e907f5ea5" y="74.212064"/>
     <use style="fill:#1f77b4;stroke:#1f77b4;" x="229.7306" xlink:href="#m6e907f5ea5" y="81.335563"/>
     <use style="fill:#1f77b4;stroke:#1f77b4;" x="236.17276" xlink:href="#m6e907f5ea5" y="88.885737"/>
     <use style="fill:#1f77b4;stroke:#1f77b4;" x="242.61492" xlink:href="#m6e907f5ea5" y="96.444448"/>
     <use style="fill:#1f77b4;stroke:#1f77b4;" x="249.05708" xlink:href="#m6e907f5ea5" y="103.936207"/>
     <use style="fill:#1f77b4;stroke:#1f77b4;" x="255.49924" xlink:href="#m6e907f5ea5" y="111.557425"/>
     <use style="fill:#1f77b4;stroke:#1f77b4;" x="261.9414" xlink:href="#m6e907f5ea5" y="119.584602"/>
     <use style="fill:#1f77b4;stroke:#1f77b4;" x="268.38356" xlink:href="#m6e907f5ea5" y="128.140441"/>
     <use style="fill:#1f77b4;stroke:#1f77b4;" x="274.82572" xlink:href="#m6e907f5ea5" y="137.011481"/>
     <use style="fill:#1f77b4;stroke:#1f77b4;" x="281.26788" xlink:href="#m6e907f5ea5" y="145.584674"/>
     <use style="fill:#1f77b4;stroke:#1f77b4;" x="287.71004" xlink:href="#m6e907f5ea5" y="152.918593"/>
     <use style="fill:#1f77b4;stroke:#1f77b4;" x="294.1522" xlink:href="#m6e907f5ea5" y="157.915147"/>
     <use style="fill:#1f77b4;stroke:#1f77b4;" x="300.59436" xlink:href="#m6e907f5ea5" y="159.532681"/>
     <use style="fill:#1f77b4;stroke:#1f77b4;" x="307.03652" xlink:href="#m6e907f5ea5" y="156.98778"/>
     <use style="fill:#1f77b4;stroke:#1f77b4;" x="313.47868" xlink:href="#m6e907f5ea5" y="149.917546"/>
     <use style="fill:#1f77b4;stroke:#1f77b4;" x="319.92084" xlink:href="#m6e907f5ea5" y="138.49515"/>
     <use style="fill:#1f77b4;stroke:#1f77b4;" x="326.363" xlink:href="#m6e907f5ea5" y="123.493963"/>
     <use style="fill:#1f77b4;stroke:#1f77b4;" x="332.80516" xlink:href="#m6e907f5ea5" y="106.28188"/>
     <use style="fill:#1f77b4;stroke:#1f77b4;" x="339.24732" xlink:href="#m6e907f5ea5" y="88.714541"/>
     <use style="fill:#1f77b4;stroke:#1f77b4;" x="345.68948" xlink:href="#m6e907f5ea5" y="72.904867"/>
     <use style="fill:#1f77b4;stroke:#1f77b4;" x="352.13164" xlink:href="#m6e907f5ea5" y="60.882482"/>
     <use style="fill:#1f77b4;stroke:#1f77b4;" x="358.5738" xlink:href="#m6e907f5ea5" y="54.208199"/>
     <use style="fill:#1f77b4;stroke:#1f77b4;" x="365.01596" xlink:href="#m6e907f5ea5" y="53.647689"/>
     <use style="fill:#1f77b4;stroke:#1f77b4;" x="371.45812" xlink:href="#m6e907f5ea5" y="59.00838"/>
     <use style="fill:#1f77b4;stroke:#1f77b4;" x="377.90028" xlink:href="#m6e907f5ea5" y="69.197602"/>
     <use style="fill:#1f77b4;stroke:#1f77b4;" x="384.34244" xlink:href="#m6e907f5ea5" y="82.484198"/>
     <use style="fill:#1f77b4;stroke:#1f77b4;" x="390.7846" xlink:href="#m6e907f5ea5" y="96.874871"/>
     <use style="fill:#1f77b4;stroke:#1f77b4;" x="397.22676" xlink:href="#m6e907f5ea5" y="110.483586"/>
     <use style="fill:#1f77b4;stroke:#1f77b4;" x="403.66892" xlink:href="#m6e907f5ea5" y="121.792043"/>
    </g>
   </g>
   <g id="line2d_13">
    <path clip-path="url(#p7fc5d03755)" d="M 88.00308 85.202282 
L 94.44524 73.54391 
L 100.8874 65.846169 
L 107.32956 63.160501 
L 113.77172 65.840128 
L 120.21388 73.381944 
L 126.65604 84.448054 
L 133.0982 97.093167 
L 139.54036 109.165552 
L 145.98252 118.791778 
L 152.42468 124.819895 
L 158.86684 127.098069 
L 165.309 126.507766 
L 171.75116 124.739558 
L 178.19332 123.871075 
L 184.63548 125.857946 
L 191.07764 132.06432 
L 197.5198 142.938796 
L 203.96196 157.896547 
L 210.40412 175.415521 
L 216.84628 193.309936 
L 223.28844 209.117456 
L 229.7306 220.527714 
L 236.17276 225.783665 
L 242.61492 223.996432 
L 249.05708 215.324349 
L 255.49924 200.979082 
L 261.9414 183.041825 
L 268.38356 164.105573 
L 274.82572 146.801519 
L 281.26788 133.308183 
L 287.71004 124.960433 
L 294.1522 122.059556 
L 300.59436 123.931844 
L 307.03652 129.209124 
L 313.47868 136.237552 
L 319.92084 143.487485 
L 326.363 149.850918 
L 332.80516 154.765028 
L 339.24732 158.16742 
L 345.68948 160.341915 
L 352.13164 161.733261 
L 358.5738 162.793945 
L 365.01596 163.890019 
L 371.45812 165.257106 
L 377.90028 166.980726 
L 384.34244 168.980537 
L 390.7846 170.998521 
L 397.22676 172.610876 
L 403.66892 173.288578 
" style="fill:none;stroke:#ff7f0e;stroke-linecap:square;stroke-width:1.5;"/>
    <defs>
     <path d="M 0 2 
C 0.530406 2 1.03916 1.789267 1.414214 1.414214 
C 1.789267 1.03916 2 0.530406 2 0 
C 2 -0.530406 1.789267 -1.03916 1.414214 -1.414214 
C 1.03916 -1.789267 0.530406 -2 0 -2 
C -0.530406 -2 -1.03916 -1.789267 -1.414214 -1.414214 
C -1.789267 -1.03916 -2 -0.530406 -2 0 
C -2 0.530406 -1.789267 1.03916 -1.414214 1.414214 
C -1.03916 1.789267 -0.530406 2 0 2 
z
" id="m4ba67ec4b9" style="stroke:#ff7f0e;"/>
    </defs>
    <g clip-path="url(#p7fc5d03755)">
     <use style="fill:#ff7f0e;stroke:#ff7f0e;" x="88.00308" xlink:href="#m4ba67ec4b9" y="85.202282"/>
     <use style="fill:#ff7f0e;stroke:#ff7f0e;" x="94.44524" xlink:href="#m4ba67ec4b9" y="73.54391"/>
     <use style="fill:#ff7f0e;stroke:#ff7f0e;" x="100.8874" xlink:href="#m4ba67ec4b9" y="65.846169"/>
     <use style="fill:#ff7f0e;stroke:#ff7f0e;" x="107.32956" xlink:href="#m4ba67ec4b9" y="63.160501"/>
     <use style="fill:#ff7f0e;stroke:#ff7f0e;" x="113.77172" xlink:href="#m4ba67ec4b9" y="65.840128"/>
     <use style="fill:#ff7f0e;stroke:#ff7f0e;" x="120.21388" xlink:href="#m4ba67ec4b9" y="73.381944"/>
     <use style="fill:#ff7f0e;stroke:#ff7f0e;" x="126.65604" xlink:href="#m4ba67ec4b9" y="84.448054"/>
     <use style="fill:#ff7f0e;stroke:#ff7f0e;" x="133.0982" xlink:href="#m4ba67ec4b9" y="97.093167"/>
     <use style="fill:#ff7f0e;stroke:#ff7f0e;" x="139.54036" xlink:href="#m4ba67ec4b9" y="109.165552"/>
     <use style="fill:#ff7f0e;stroke:#ff7f0e;" x="145.98252" xlink:href="#m4ba67ec4b9" y="118.791778"/>
     <use style="fill:#ff7f0e;stroke:#ff7f0e;" x="152.42468" xlink:href="#m4ba67ec4b9" y="124.819895"/>
     <use style="fill:#ff7f0e;stroke:#ff7f0e;" x="158.86684" xlink:href="#m4ba67ec4b9" y="127.098069"/>
     <use style="fill:#ff7f0e;stroke:#ff7f0e;" x="165.309" xlink:href="#m4ba67ec4b9" y="126.507766"/>
     <use style="fill:#ff7f0e;stroke:#ff7f0e;" x="171.75116" xlink:href="#m4ba67ec4b9" y="124.739558"/>
     <use style="fill:#ff7f0e;stroke:#ff7f0e;" x="178.19332" xlink:href="#m4ba67ec4b9" y="123.871075"/>
     <use style="fill:#ff7f0e;stroke:#ff7f0e;" x="184.63548" xlink:href="#m4ba67ec4b9" y="125.857946"/>
     <use style="fill:#ff7f0e;stroke:#ff7f0e;" x="191.07764" xlink:href="#m4ba67ec4b9" y="132.06432"/>
     <use style="fill:#ff7f0e;stroke:#ff7f0e;" x="197.5198" xlink:href="#m4ba67ec4b9" y="142.938796"/>
     <use style="fill:#ff7f0e;stroke:#ff7f0e;" x="203.96196" xlink:href="#m4ba67ec4b9" y="157.896547"/>
     <use style="fill:#ff7f0e;stroke:#ff7f0e;" x="210.40412" xlink:href="#m4ba67ec4b9" y="175.415521"/>
     <use style="fill:#ff7f0e;stroke:#ff7f0e;" x="216.84628" xlink:href="#m4ba67ec4b9" y="193.309936"/>
     <use style="fill:#ff7f0e;stroke:#ff7f0e;" x="223.28844" xlink:href="#m4ba67ec4b9" y="209.117456"/>
     <use style="fill:#ff7f0e;stroke:#ff7f0e;" x="229.7306" xlink:href="#m4ba67ec4b9" y="220.527714"/>
     <use style="fill:#ff7f0e;stroke:#ff7f0e;" x="236.17276" xlink:href="#m4ba67ec4b9" y="225.783665"/>
     <use style="fill:#ff7f0e;stroke:#ff7f0e;" x="242.61492" xlink:href="#m4ba67ec4b9" y="223.996432"/>
     <use style="fill:#ff7f0e;stroke:#ff7f0e;" x="249.05708" xlink:href="#m4ba67ec4b9" y="215.324349"/>
     <use style="fill:#ff7f0e;stroke:#ff7f0e;" x="255.49924" xlink:href="#m4ba67ec4b9" y="200.979082"/>
     <use style="fill:#ff7f0e;stroke:#ff7f0e;" x="261.9414" xlink:href="#m4ba67ec4b9" y="183.041825"/>
     <use style="fill:#ff7f0e;stroke:#ff7f0e;" x="268.38356" xlink:href="#m4ba67ec4b9" y="164.105573"/>
     <use style="fill:#ff7f0e;stroke:#ff7f0e;" x="274.82572" xlink:href="#m4ba67ec4b9" y="146.801519"/>
     <use style="fill:#ff7f0e;stroke:#ff7f0e;" x="281.26788" xlink:href="#m4ba67ec4b9" y="133.308183"/>
     <use style="fill:#ff7f0e;stroke:#ff7f0e;" x="287.71004" xlink:href="#m4ba67ec4b9" y="124.960433"/>
     <use style="fill:#ff7f0e;stroke:#ff7f0e;" x="294.1522" xlink:href="#m4ba67ec4b9" y="122.059556"/>
     <use style="fill:#ff7f0e;stroke:#ff7f0e;" x="300.59436" xlink:href="#m4ba67ec4b9" y="123.931844"/>
     <use style="fill:#ff7f0e;stroke:#ff7f0e;" x="307.03652" xlink:href="#m4ba67ec4b9" y="129.209124"/>
     <use style="fill:#ff7f0e;stroke:#ff7f0e;" x="313.47868" xlink:href="#m4ba67ec4b9" y="136.237552"/>
     <use style="fill:#ff7f0e;stroke:#ff7f0e;" x="319.92084" xlink:href="#m4ba67ec4b9" y="143.487485"/>
     <use style="fill:#ff7f0e;stroke:#ff7f0e;" x="326.363" xlink:href="#m4ba67ec4b9" y="149.850918"/>
     <use style="fill:#ff7f0e;stroke:#ff7f0e;" x="332.80516" xlink:href="#m4ba67ec4b9" y="154.765028"/>
     <use style="fill:#ff7f0e;stroke:#ff7f0e;" x="339.24732" xlink:href="#m4ba67ec4b9" y="158.16742"/>
     <use style="fill:#ff7f0e;stroke:#ff7f0e;" x="345.68948" xlink:href="#m4ba67ec4b9" y="160.341915"/>
     <use style="fill:#ff7f0e;stroke:#ff7f0e;" x="352.13164" xlink:href="#m4ba67ec4b9" y="161.733261"/>
     <use style="fill:#ff7f0e;stroke:#ff7f0e;" x="358.5738" xlink:href="#m4ba67ec4b9" y="162.793945"/>
     <use style="fill:#ff7f0e;stroke:#ff7f0e;" x="365.01596" xlink:href="#m4ba67ec4b9" y="163.890019"/>
     <use style="fill:#ff7f0e;stroke:#ff7f0e;" x="371.45812" xlink:href="#m4ba67ec4b9" y="165.257106"/>
     <use style="fill:#ff7f0e;stroke:#ff7f0e;" x="377.90028" xlink:href="#m4ba67ec4b9" y="166.980726"/>
     <use style="fill:#ff7f0e;stroke:#ff7f0e;" x="384.34244" xlink:href="#m4ba67ec4b9" y="168.980537"/>
     <use style="fill:#ff7f0e;stroke:#ff7f0e;" x="390.7846" xlink:href="#m4ba67ec4b9" y="170.998521"/>
     <use style="fill:#ff7f0e;stroke:#ff7f0e;" x="397.22676" xlink:href="#m4ba67ec4b9" y="172.610876"/>
     <use style="fill:#ff7f0e;stroke:#ff7f0e;" x="403.66892" xlink:href="#m4ba67ec4b9" y="173.288578"/>
    </g>
   </g>
   <g id="line2d_14">
    <path clip-path="url(#p7fc5d03755)" d="M 88.00308 227.198879 
L 94.44524 222.327429 
L 100.8874 213.119467 
L 107.32956 199.426593 
L 113.77172 181.875467 
L 120.21388 161.675138 
L 126.65604 140.306081 
L 133.0982 119.191032 
L 139.54036 99.444092 
L 145.98252 81.758217 
L 152.42468 66.438169 
L 158.86684 53.536183 
L 165.309 43.021249 
L 171.75116 34.915808 
L 178.19332 29.360565 
L 184.63548 26.601041 
L 191.07764 26.914149 
L 197.5198 30.502624 
L 203.96196 37.382621 
L 210.40412 47.285918 
L 216.84628 59.596367 
L 223.28844 73.341085 
L 229.7306 87.252854 
L 236.17276 99.90678 
L 242.61492 109.913317 
L 249.05708 116.129015 
L 255.49924 117.836325 
L 261.9414 114.850103 
L 268.38356 107.529716 
L 274.82572 96.702623 
L 281.26788 83.527345 
L 287.71004 69.331956 
L 294.1522 55.457729 
L 300.59436 43.122439 
L 307.03652 33.303692 
L 313.47868 26.638553 
L 319.92084 23.343896 
L 326.363 23.176466 
L 332.80516 25.461683 
L 339.24732 29.214201 
L 345.68948 33.347845 
L 352.13164 36.934637 
L 358.5738 39.440453 
L 365.01596 40.855537 
L 371.45812 41.664229 
L 377.90028 42.65184 
L 384.34244 44.609047 
L 390.7846 48.03683 
L 397.22676 52.958802 
L 403.66892 58.908521 
" style="fill:none;stroke:#2ca02c;stroke-linecap:square;stroke-width:1.5;"/>
    <defs>
     <path d="M 0 2 
C 0.530406 2 1.03916 1.789267 1.414214 1.414214 
C 1.789267 1.03916 2 0.530406 2 0 
C 2 -0.530406 1.789267 -1.03916 1.414214 -1.414214 
C 1.03916 -1.789267 0.530406 -2 0 -2 
C -0.530406 -2 -1.03916 -1.789267 -1.414214 -1.414214 
C -1.789267 -1.03916 -2 -0.530406 -2 0 
C -2 0.530406 -1.789267 1.03916 -1.414214 1.414214 
C -1.03916 1.789267 -0.530406 2 0 2 
z
" id="m178ebeb8c2" style="stroke:#2ca02c;"/>
    </defs>
    <g clip-path="url(#p7fc5d03755)">
     <use style="fill:#2ca02c;stroke:#2ca02c;" x="88.00308" xlink:href="#m178ebeb8c2" y="227.198879"/>
     <use style="fill:#2ca02c;stroke:#2ca02c;" x="94.44524" xlink:href="#m178ebeb8c2" y="222.327429"/>
     <use style="fill:#2ca02c;stroke:#2ca02c;" x="100.8874" xlink:href="#m178ebeb8c2" y="213.119467"/>
     <use style="fill:#2ca02c;stroke:#2ca02c;" x="107.32956" xlink:href="#m178ebeb8c2" y="199.426593"/>
     <use style="fill:#2ca02c;stroke:#2ca02c;" x="113.77172" xlink:href="#m178ebeb8c2" y="181.875467"/>
     <use style="fill:#2ca02c;stroke:#2ca02c;" x="120.21388" xlink:href="#m178ebeb8c2" y="161.675138"/>
     <use style="fill:#2ca02c;stroke:#2ca02c;" x="126.65604" xlink:href="#m178ebeb8c2" y="140.306081"/>
     <use style="fill:#2ca02c;stroke:#2ca02c;" x="133.0982" xlink:href="#m178ebeb8c2" y="119.191032"/>
     <use style="fill:#2ca02c;stroke:#2ca02c;" x="139.54036" xlink:href="#m178ebeb8c2" y="99.444092"/>
     <use style="fill:#2ca02c;stroke:#2ca02c;" x="145.98252" xlink:href="#m178ebeb8c2" y="81.758217"/>
     <use style="fill:#2ca02c;stroke:#2ca02c;" x="152.42468" xlink:href="#m178ebeb8c2" y="66.438169"/>
     <use style="fill:#2ca02c;stroke:#2ca02c;" x="158.86684" xlink:href="#m178ebeb8c2" y="53.536183"/>
     <use style="fill:#2ca02c;stroke:#2ca02c;" x="165.309" xlink:href="#m178ebeb8c2" y="43.021249"/>
     <use style="fill:#2ca02c;stroke:#2ca02c;" x="171.75116" xlink:href="#m178ebeb8c2" y="34.915808"/>
     <use style="fill:#2ca02c;stroke:#2ca02c;" x="178.19332" xlink:href="#m178ebeb8c2" y="29.360565"/>
     <use style="fill:#2ca02c;stroke:#2ca02c;" x="184.63548" xlink:href="#m178ebeb8c2" y="26.601041"/>
     <use style="fill:#2ca02c;stroke:#2ca02c;" x="191.07764" xlink:href="#m178ebeb8c2" y="26.914149"/>
     <use style="fill:#2ca02c;stroke:#2ca02c;" x="197.5198" xlink:href="#m178ebeb8c2" y="30.502624"/>
     <use style="fill:#2ca02c;stroke:#2ca02c;" x="203.96196" xlink:href="#m178ebeb8c2" y="37.382621"/>
     <use style="fill:#2ca02c;stroke:#2ca02c;" x="210.40412" xlink:href="#m178ebeb8c2" y="47.285918"/>
     <use style="fill:#2ca02c;stroke:#2ca02c;" x="216.84628" xlink:href="#m178ebeb8c2" y="59.596367"/>
     <use style="fill:#2ca02c;stroke:#2ca02c;" x="223.28844" xlink:href="#m178ebeb8c2" y="73.341085"/>
     <use style="fill:#2ca02c;stroke:#2ca02c;" x="229.7306" xlink:href="#m178ebeb8c2" y="87.252854"/>
     <use style="fill:#2ca02c;stroke:#2ca02c;" x="236.17276" xlink:href="#m178ebeb8c2" y="99.90678"/>
     <use style="fill:#2ca02c;stroke:#2ca02c;" x="242.61492" xlink:href="#m178ebeb8c2" y="109.913317"/>
     <use style="fill:#2ca02c;stroke:#2ca02c;" x="249.05708" xlink:href="#m178ebeb8c2" y="116.129015"/>
     <use style="fill:#2ca02c;stroke:#2ca02c;" x="255.49924" xlink:href="#m178ebeb8c2" y="117.836325"/>
     <use style="fill:#2ca02c;stroke:#2ca02c;" x="261.9414" xlink:href="#m178ebeb8c2" y="114.850103"/>
     <use style="fill:#2ca02c;stroke:#2ca02c;" x="268.38356" xlink:href="#m178ebeb8c2" y="107.529716"/>
     <use style="fill:#2ca02c;stroke:#2ca02c;" x="274.82572" xlink:href="#m178ebeb8c2" y="96.702623"/>
     <use style="fill:#2ca02c;stroke:#2ca02c;" x="281.26788" xlink:href="#m178ebeb8c2" y="83.527345"/>
     <use style="fill:#2ca02c;stroke:#2ca02c;" x="287.71004" xlink:href="#m178ebeb8c2" y="69.331956"/>
     <use style="fill:#2ca02c;stroke:#2ca02c;" x="294.1522" xlink:href="#m178ebeb8c2" y="55.457729"/>
     <use style="fill:#2ca02c;stroke:#2ca02c;" x="300.59436" xlink:href="#m178ebeb8c2" y="43.122439"/>
     <use style="fill:#2ca02c;stroke:#2ca02c;" x="307.03652" xlink:href="#m178ebeb8c2" y="33.303692"/>
     <use style="fill:#2ca02c;stroke:#2ca02c;" x="313.47868" xlink:href="#m178ebeb8c2" y="26.638553"/>
     <use style="fill:#2ca02c;stroke:#2ca02c;" x="319.92084" xlink:href="#m178ebeb8c2" y="23.343896"/>
     <use style="fill:#2ca02c;stroke:#2ca02c;" x="326.363" xlink:href="#m178ebeb8c2" y="23.176466"/>
     <use style="fill:#2ca02c;stroke:#2ca02c;" x="332.80516" xlink:href="#m178ebeb8c2" y="25.461683"/>
     <use style="fill:#2ca02c;stroke:#2ca02c;" x="339.24732" xlink:href="#m178ebeb8c2" y="29.214201"/>
     <use style="fill:#2ca02c;stroke:#2ca02c;" x="345.68948" xlink:href="#m178ebeb8c2" y="33.347845"/>
     <use style="fill:#2ca02c;stroke:#2ca02c;" x="352.13164" xlink:href="#m178ebeb8c2" y="36.934637"/>
     <use style="fill:#2ca02c;stroke:#2ca02c;" x="358.5738" xlink:href="#m178ebeb8c2" y="39.440453"/>
     <use style="fill:#2ca02c;stroke:#2ca02c;" x="365.01596" xlink:href="#m178ebeb8c2" y="40.855537"/>
     <use style="fill:#2ca02c;stroke:#2ca02c;" x="371.45812" xlink:href="#m178ebeb8c2" y="41.664229"/>
     <use style="fill:#2ca02c;stroke:#2ca02c;" x="377.90028" xlink:href="#m178ebeb8c2" y="42.65184"/>
     <use style="fill:#2ca02c;stroke:#2ca02c;" x="384.34244" xlink:href="#m178ebeb8c2" y="44.609047"/>
     <use style="fill:#2ca02c;stroke:#2ca02c;" x="390.7846" xlink:href="#m178ebeb8c2" y="48.03683"/>
     <use style="fill:#2ca02c;stroke:#2ca02c;" x="397.22676" xlink:href="#m178ebeb8c2" y="52.958802"/>
     <use style="fill:#2ca02c;stroke:#2ca02c;" x="403.66892" xlink:href="#m178ebeb8c2" y="58.908521"/>
    </g>
   </g>
   <g id="line2d_15">
    <path clip-path="url(#p7fc5d03755)" d="M 88.00308 128.533278 
L 94.44524 131.542313 
L 100.8874 136.652825 
L 107.32956 143.736649 
L 113.77172 152.448774 
L 120.21388 162.085475 
L 126.65604 171.506888 
L 133.0982 179.185704 
L 139.54036 183.407297 
L 145.98252 182.595898 
L 152.42468 175.694103 
L 158.86684 162.494204 
L 165.309 143.818384 
L 171.75116 121.474673 
L 178.19332 97.969333 
L 184.63548 76.025624 
L 191.07764 58.022453 
L 197.5198 45.503785 
L 203.96196 38.901319 
L 210.40412 37.554051 
L 216.84628 40.015802 
L 223.28844 44.548317 
L 229.7306 49.639877 
L 236.17276 54.390595 
L 242.61492 58.661805 
L 249.05708 62.973044 
L 255.49924 68.210726 
L 261.9414 75.25991 
L 268.38356 84.674303 
L 274.82572 96.468164 
L 281.26788 110.065103 
L 287.71004 124.39166 
L 294.1522 138.071699 
L 300.59436 149.665185 
L 307.03652 157.899708 
L 313.47868 161.858483 
L 319.92084 161.106698 
L 326.363 155.753072 
L 332.80516 146.451947 
L 339.24732 134.352238 
L 345.68948 120.995387 
L 352.13164 108.159008 
L 358.5738 97.643245 
L 365.01596 91.007811 
L 371.45812 89.290739 
L 377.90028 92.767544 
L 384.34244 100.826753 
L 390.7846 112.027961 
L 397.22676 124.365857 
L 403.66892 135.696498 
" style="fill:none;stroke:#d62728;stroke-linecap:square;stroke-width:1.5;"/>
    <defs>
     <path d="M 0 2 
C 0.530406 2 1.03916 1.789267 1.414214 1.414214 
C 1.789267 1.03916 2 0.530406 2 0 
C 2 -0.530406 1.789267 -1.03916 1.414214 -1.414214 
C 1.03916 -1.789267 0.530406 -2 0 -2 
C -0.530406 -2 -1.03916 -1.789267 -1.414214 -1.414214 
C -1.789267 -1.03916 -2 -0.530406 -2 0 
C -2 0.530406 -1.789267 1.03916 -1.414214 1.414214 
C -1.03916 1.789267 -0.530406 2 0 2 
z
" id="m12951fded9" style="stroke:#d62728;"/>
    </defs>
    <g clip-path="url(#p7fc5d03755)">
     <use style="fill:#d62728;stroke:#d62728;" x="88.00308" xlink:href="#m12951fded9" y="128.533278"/>
     <use style="fill:#d62728;stroke:#d62728;" x="94.44524" xlink:href="#m12951fded9" y="131.542313"/>
     <use style="fill:#d62728;stroke:#d62728;" x="100.8874" xlink:href="#m12951fded9" y="136.652825"/>
     <use style="fill:#d62728;stroke:#d62728;" x="107.32956" xlink:href="#m12951fded9" y="143.736649"/>
     <use style="fill:#d62728;stroke:#d62728;" x="113.77172" xlink:href="#m12951fded9" y="152.448774"/>
     <use style="fill:#d62728;stroke:#d62728;" x="120.21388" xlink:href="#m12951fded9" y="162.085475"/>
     <use style="fill:#d62728;stroke:#d62728;" x="126.65604" xlink:href="#m12951fded9" y="171.506888"/>
     <use style="fill:#d62728;stroke:#d62728;" x="133.0982" xlink:href="#m12951fded9" y="179.185704"/>
     <use style="fill:#d62728;stroke:#d62728;" x="139.54036" xlink:href="#m12951fded9" y="183.407297"/>
     <use style="fill:#d62728;stroke:#d62728;" x="145.98252" xlink:href="#m12951fded9" y="182.595898"/>
     <use style="fill:#d62728;stroke:#d62728;" x="152.42468" xlink:href="#m12951fded9" y="175.694103"/>
     <use style="fill:#d62728;stroke:#d62728;" x="158.86684" xlink:href="#m12951fded9" y="162.494204"/>
     <use style="fill:#d62728;stroke:#d62728;" x="165.309" xlink:href="#m12951fded9" y="143.818384"/>
     <use style="fill:#d62728;stroke:#d62728;" x="171.75116" xlink:href="#m12951fded9" y="121.474673"/>
     <use style="fill:#d62728;stroke:#d62728;" x="178.19332" xlink:href="#m12951fded9" y="97.969333"/>
     <use style="fill:#d62728;stroke:#d62728;" x="184.63548" xlink:href="#m12951fded9" y="76.025624"/>
     <use style="fill:#d62728;stroke:#d62728;" x="191.07764" xlink:href="#m12951fded9" y="58.022453"/>
     <use style="fill:#d62728;stroke:#d62728;" x="197.5198" xlink:href="#m12951fded9" y="45.503785"/>
     <use style="fill:#d62728;stroke:#d62728;" x="203.96196" xlink:href="#m12951fded9" y="38.901319"/>
     <use style="fill:#d62728;stroke:#d62728;" x="210.40412" xlink:href="#m12951fded9" y="37.554051"/>
     <use style="fill:#d62728;stroke:#d62728;" x="216.84628" xlink:href="#m12951fded9" y="40.015802"/>
     <use style="fill:#d62728;stroke:#d62728;" x="223.28844" xlink:href="#m12951fded9" y="44.548317"/>
     <use style="fill:#d62728;stroke:#d62728;" x="229.7306" xlink:href="#m12951fded9" y="49.639877"/>
     <use style="fill:#d62728;stroke:#d62728;" x="236.17276" xlink:href="#m12951fded9" y="54.390595"/>
     <use style="fill:#d62728;stroke:#d62728;" x="242.61492" xlink:href="#m12951fded9" y="58.661805"/>
     <use style="fill:#d62728;stroke:#d62728;" x="249.05708" xlink:href="#m12951fded9" y="62.973044"/>
     <use style="fill:#d62728;stroke:#d62728;" x="255.49924" xlink:href="#m12951fded9" y="68.210726"/>
     <use style="fill:#d62728;stroke:#d62728;" x="261.9414" xlink:href="#m12951fded9" y="75.25991"/>
     <use style="fill:#d62728;stroke:#d62728;" x="268.38356" xlink:href="#m12951fded9" y="84.674303"/>
     <use style="fill:#d62728;stroke:#d62728;" x="274.82572" xlink:href="#m12951fded9" y="96.468164"/>
     <use style="fill:#d62728;stroke:#d62728;" x="281.26788" xlink:href="#m12951fded9" y="110.065103"/>
     <use style="fill:#d62728;stroke:#d62728;" x="287.71004" xlink:href="#m12951fded9" y="124.39166"/>
     <use style="fill:#d62728;stroke:#d62728;" x="294.1522" xlink:href="#m12951fded9" y="138.071699"/>
     <use style="fill:#d62728;stroke:#d62728;" x="300.59436" xlink:href="#m12951fded9" y="149.665185"/>
     <use style="fill:#d62728;stroke:#d62728;" x="307.03652" xlink:href="#m12951fded9" y="157.899708"/>
     <use style="fill:#d62728;stroke:#d62728;" x="313.47868" xlink:href="#m12951fded9" y="161.858483"/>
     <use style="fill:#d62728;stroke:#d62728;" x="319.92084" xlink:href="#m12951fded9" y="161.106698"/>
     <use style="fill:#d62728;stroke:#d62728;" x="326.363" xlink:href="#m12951fded9" y="155.753072"/>
     <use style="fill:#d62728;stroke:#d62728;" x="332.80516" xlink:href="#m12951fded9" y="146.451947"/>
     <use style="fill:#d62728;stroke:#d62728;" x="339.24732" xlink:href="#m12951fded9" y="134.352238"/>
     <use style="fill:#d62728;stroke:#d62728;" x="345.68948" xlink:href="#m12951fded9" y="120.995387"/>
     <use style="fill:#d62728;stroke:#d62728;" x="352.13164" xlink:href="#m12951fded9" y="108.159008"/>
     <use style="fill:#d62728;stroke:#d62728;" x="358.5738" xlink:href="#m12951fded9" y="97.643245"/>
     <use style="fill:#d62728;stroke:#d62728;" x="365.01596" xlink:href="#m12951fded9" y="91.007811"/>
     <use style="fill:#d62728;stroke:#d62728;" x="371.45812" xlink:href="#m12951fded9" y="89.290739"/>
     <use style="fill:#d62728;stroke:#d62728;" x="377.90028" xlink:href="#m12951fded9" y="92.767544"/>
     <use style="fill:#d62728;stroke:#d62728;" x="384.34244" xlink:href="#m12951fded9" y="100.826753"/>
     <use style="fill:#d62728;stroke:#d62728;" x="390.7846" xlink:href="#m12951fded9" y="112.027961"/>
     <use style="fill:#d62728;stroke:#d62728;" x="397.22676" xlink:href="#m12951fded9" y="124.365857"/>
     <use style="fill:#d62728;stroke:#d62728;" x="403.66892" xlink:href="#m12951fded9" y="135.696498"/>
    </g>
   </g>
   <g id="line2d_16">
    <path clip-path="url(#p7fc5d03755)" d="M 88.00308 72.637112 
L 94.44524 71.793308 
L 100.8874 73.001887 
L 107.32956 76.89717 
L 113.77172 83.67966 
L 120.21388 92.926115 
L 126.65604 103.602684 
L 133.0982 114.288626 
L 139.54036 123.53723 
L 145.98252 130.249925 
L 152.42468 133.939259 
L 158.86684 134.802239 
L 165.309 133.595575 
L 171.75116 131.368782 
L 178.19332 129.148577 
L 184.63548 127.670229 
L 191.07764 127.224943 
L 197.5198 127.650751 
L 203.96196 128.453045 
L 210.40412 129.009774 
L 216.84628 128.801655 
L 223.28844 127.608664 
L 229.7306 125.627247 
L 236.17276 123.48281 
L 242.61492 122.133377 
L 249.05708 122.680261 
L 255.49924 126.119257 
L 261.9414 133.080095 
L 268.38356 143.611469 
L 274.82572 157.067296 
L 281.26788 172.133719 
L 287.71004 187.004794 
L 294.1522 199.675877 
L 300.59436 208.290783 
L 307.03652 211.465113 
L 313.47868 208.518438 
L 319.92084 199.575536 
L 326.363 185.530034 
L 332.80516 167.888801 
L 339.24732 148.530605 
L 345.68948 129.418841 
L 352.13164 112.313064 
L 358.5738 98.526578 
L 365.01596 88.773539 
L 371.45812 83.133075 
L 377.90028 81.132018 
L 384.34244 81.918872 
L 390.7846 84.483953 
L 397.22676 87.878334 
L 403.66892 91.395442 
" style="fill:none;stroke:#9467bd;stroke-linecap:square;stroke-width:1.5;"/>
    <defs>
     <path d="M 0 2 
C 0.530406 2 1.03916 1.789267 1.414214 1.414214 
C 1.789267 1.03916 2 0.530406 2 0 
C 2 -0.530406 1.789267 -1.03916 1.414214 -1.414214 
C 1.03916 -1.789267 0.530406 -2 0 -2 
C -0.530406 -2 -1.03916 -1.789267 -1.414214 -1.414214 
C -1.789267 -1.03916 -2 -0.530406 -2 0 
C -2 0.530406 -1.789267 1.03916 -1.414214 1.414214 
C -1.03916 1.789267 -0.530406 2 0 2 
z
" id="m063d052c8f" style="stroke:#9467bd;"/>
    </defs>
    <g clip-path="url(#p7fc5d03755)">
     <use style="fill:#9467bd;stroke:#9467bd;" x="88.00308" xlink:href="#m063d052c8f" y="72.637112"/>
     <use style="fill:#9467bd;stroke:#9467bd;" x="94.44524" xlink:href="#m063d052c8f" y="71.793308"/>
     <use style="fill:#9467bd;stroke:#9467bd;" x="100.8874" xlink:href="#m063d052c8f" y="73.001887"/>
     <use style="fill:#9467bd;stroke:#9467bd;" x="107.32956" xlink:href="#m063d052c8f" y="76.89717"/>
     <use style="fill:#9467bd;stroke:#9467bd;" x="113.77172" xlink:href="#m063d052c8f" y="83.67966"/>
     <use style="fill:#9467bd;stroke:#9467bd;" x="120.21388" xlink:href="#m063d052c8f" y="92.926115"/>
     <use style="fill:#9467bd;stroke:#9467bd;" x="126.65604" xlink:href="#m063d052c8f" y="103.602684"/>
     <use style="fill:#9467bd;stroke:#9467bd;" x="133.0982" xlink:href="#m063d052c8f" y="114.288626"/>
     <use style="fill:#9467bd;stroke:#9467bd;" x="139.54036" xlink:href="#m063d052c8f" y="123.53723"/>
     <use style="fill:#9467bd;stroke:#9467bd;" x="145.98252" xlink:href="#m063d052c8f" y="130.249925"/>
     <use style="fill:#9467bd;stroke:#9467bd;" x="152.42468" xlink:href="#m063d052c8f" y="133.939259"/>
     <use style="fill:#9467bd;stroke:#9467bd;" x="158.86684" xlink:href="#m063d052c8f" y="134.802239"/>
     <use style="fill:#9467bd;stroke:#9467bd;" x="165.309" xlink:href="#m063d052c8f" y="133.595575"/>
     <use style="fill:#9467bd;stroke:#9467bd;" x="171.75116" xlink:href="#m063d052c8f" y="131.368782"/>
     <use style="fill:#9467bd;stroke:#9467bd;" x="178.19332" xlink:href="#m063d052c8f" y="129.148577"/>
     <use style="fill:#9467bd;stroke:#9467bd;" x="184.63548" xlink:href="#m063d052c8f" y="127.670229"/>
     <use style="fill:#9467bd;stroke:#9467bd;" x="191.07764" xlink:href="#m063d052c8f" y="127.224943"/>
     <use style="fill:#9467bd;stroke:#9467bd;" x="197.5198" xlink:href="#m063d052c8f" y="127.650751"/>
     <use style="fill:#9467bd;stroke:#9467bd;" x="203.96196" xlink:href="#m063d052c8f" y="128.453045"/>
     <use style="fill:#9467bd;stroke:#9467bd;" x="210.40412" xlink:href="#m063d052c8f" y="129.009774"/>
     <use style="fill:#9467bd;stroke:#9467bd;" x="216.84628" xlink:href="#m063d052c8f" y="128.801655"/>
     <use style="fill:#9467bd;stroke:#9467bd;" x="223.28844" xlink:href="#m063d052c8f" y="127.608664"/>
     <use style="fill:#9467bd;stroke:#9467bd;" x="229.7306" xlink:href="#m063d052c8f" y="125.627247"/>
     <use style="fill:#9467bd;stroke:#9467bd;" x="236.17276" xlink:href="#m063d052c8f" y="123.48281"/>
     <use style="fill:#9467bd;stroke:#9467bd;" x="242.61492" xlink:href="#m063d052c8f" y="122.133377"/>
     <use style="fill:#9467bd;stroke:#9467bd;" x="249.05708" xlink:href="#m063d052c8f" y="122.680261"/>
     <use style="fill:#9467bd;stroke:#9467bd;" x="255.49924" xlink:href="#m063d052c8f" y="126.119257"/>
     <use style="fill:#9467bd;stroke:#9467bd;" x="261.9414" xlink:href="#m063d052c8f" y="133.080095"/>
     <use style="fill:#9467bd;stroke:#9467bd;" x="268.38356" xlink:href="#m063d052c8f" y="143.611469"/>
     <use style="fill:#9467bd;stroke:#9467bd;" x="274.82572" xlink:href="#m063d052c8f" y="157.067296"/>
     <use style="fill:#9467bd;stroke:#9467bd;" x="281.26788" xlink:href="#m063d052c8f" y="172.133719"/>
     <use style="fill:#9467bd;stroke:#9467bd;" x="287.71004" xlink:href="#m063d052c8f" y="187.004794"/>
     <use style="fill:#9467bd;stroke:#9467bd;" x="294.1522" xlink:href="#m063d052c8f" y="199.675877"/>
     <use style="fill:#9467bd;stroke:#9467bd;" x="300.59436" xlink:href="#m063d052c8f" y="208.290783"/>
     <use style="fill:#9467bd;stroke:#9467bd;" x="307.03652" xlink:href="#m063d052c8f" y="211.465113"/>
     <use style="fill:#9467bd;stroke:#9467bd;" x="313.47868" xlink:href="#m063d052c8f" y="208.518438"/>
     <use style="fill:#9467bd;stroke:#9467bd;" x="319.92084" xlink:href="#m063d052c8f" y="199.575536"/>
     <use style="fill:#9467bd;stroke:#9467bd;" x="326.363" xlink:href="#m063d052c8f" y="185.530034"/>
     <use style="fill:#9467bd;stroke:#9467bd;" x="332.80516" xlink:href="#m063d052c8f" y="167.888801"/>
     <use style="fill:#9467bd;stroke:#9467bd;" x="339.24732" xlink:href="#m063d052c8f" y="148.530605"/>
     <use style="fill:#9467bd;stroke:#9467bd;" x="345.68948" xlink:href="#m063d052c8f" y="129.418841"/>
     <use style="fill:#9467bd;stroke:#9467bd;" x="352.13164" xlink:href="#m063d052c8f" y="112.313064"/>
     <use style="fill:#9467bd;stroke:#9467bd;" x="358.5738" xlink:href="#m063d052c8f" y="98.526578"/>
     <use style="fill:#9467bd;stroke:#9467bd;" x="365.01596" xlink:href="#m063d052c8f" y="88.773539"/>
     <use style="fill:#9467bd;stroke:#9467bd;" x="371.45812" xlink:href="#m063d052c8f" y="83.133075"/>
     <use style="fill:#9467bd;stroke:#9467bd;" x="377.90028" xlink:href="#m063d052c8f" y="81.132018"/>
     <use style="fill:#9467bd;stroke:#9467bd;" x="384.34244" xlink:href="#m063d052c8f" y="81.918872"/>
     <use style="fill:#9467bd;stroke:#9467bd;" x="390.7846" xlink:href="#m063d052c8f" y="84.483953"/>
     <use style="fill:#9467bd;stroke:#9467bd;" x="397.22676" xlink:href="#m063d052c8f" y="87.878334"/>
     <use style="fill:#9467bd;stroke:#9467bd;" x="403.66892" xlink:href="#m063d052c8f" y="91.395442"/>
    </g>
   </g>
   <g id="patch_3">
    <path d="M 84.782 237.4 
L 84.782 12.975345 
" style="fill:none;stroke:#000000;stroke-linecap:square;stroke-linejoin:miter;stroke-width:0.8;"/>
   </g>
   <g id="patch_4">
    <path d="M 406.89 237.4 
L 406.89 12.975345 
" style="fill:none;stroke:#000000;stroke-linecap:square;stroke-linejoin:miter;stroke-width:0.8;"/>
   </g>
   <g id="patch_5">
    <path d="M 84.782 237.4 
L 406.89 237.4 
" style="fill:none;stroke:#000000;stroke-linecap:square;stroke-linejoin:miter;stroke-width:0.8;"/>
   </g>
   <g id="patch_6">
    <path d="M 84.782 12.975345 
L 406.89 12.975345 
" style="fill:none;stroke:#000000;stroke-linecap:square;stroke-linejoin:miter;stroke-width:0.8;"/>
   </g>
  </g>
 </g>
 <defs>
  <clipPath id="p7fc5d03755">
   <rect height="224.424655" width="322.108" x="84.782" y="12.975345"/>
  </clipPath>
 </defs>
</svg>
