<?xml version="1.0" encoding="utf-8" standalone="no"?>
<!DOCTYPE svg PUBLIC "-//W3C//DTD SVG 1.1//EN"
  "http://www.w3.org/Graphics/SVG/1.1/DTD/svg11.dtd">
<!-- Created with matplotlib (https://matplotlib.org/) -->
<svg height="345.6pt" version="1.1" viewBox="0 0 460.8 345.6" width="460.8pt" xmlns="http://www.w3.org/2000/svg" xmlns:xlink="http://www.w3.org/1999/xlink">
 <defs>
  <style type="text/css">
*{stroke-linecap:butt;stroke-linejoin:round;}
  </style>
 </defs>
 <g id="figure_1">
  <g id="patch_1">
   <path d="M 0 345.6 
L 460.8 345.6 
L 460.8 0 
L 0 0 
z
" style="fill:#ffffff;"/>
  </g>
  <g id="axes_1">
   <g id="patch_2">
    <path d="M 36.97 317.72 
L 450 317.72 
L 450 10.8 
L 36.97 10.8 
z
" style="fill:#ffffff;"/>
   </g>
   <g id="matplotlib.axis_1">
    <g id="xtick_1">
     <g id="line2d_1">
      <defs>
       <path d="M 0 0 
L 0 3.5 
" id="m5998519dc1" style="stroke:#000000;stroke-width:0.8;"/>
      </defs>
      <g>
       <use style="stroke:#000000;stroke-width:0.8;" x="36.97" xlink:href="#m5998519dc1" y="317.72"/>
      </g>
     </g>
     <g id="text_1">
      <!-- 0 -->
      <defs>
       <path d="M 31.78125 66.40625 
Q 24.171875 66.40625 20.328125 58.90625 
Q 16.5 51.421875 16.5 36.375 
Q 16.5 21.390625 20.328125 13.890625 
Q 24.171875 6.390625 31.78125 6.390625 
Q 39.453125 6.390625 43.28125 13.890625 
Q 47.125 21.390625 47.125 36.375 
Q 47.125 51.421875 43.28125 58.90625 
Q 39.453125 66.40625 31.78125 66.40625 
z
M 31.78125 74.21875 
Q 44.046875 74.21875 50.515625 64.515625 
Q 56.984375 54.828125 56.984375 36.375 
Q 56.984375 17.96875 50.515625 8.265625 
Q 44.046875 -1.421875 31.78125 -1.421875 
Q 19.53125 -1.421875 13.0625 8.265625 
Q 6.59375 17.96875 6.59375 36.375 
Q 6.59375 54.828125 13.0625 64.515625 
Q 19.53125 74.21875 31.78125 74.21875 
z
" id="DejaVuSans-48"/>
      </defs>
      <g transform="translate(33.78875 332.318437)scale(0.1 -0.1)">
       <use xlink:href="#DejaVuSans-48"/>
      </g>
     </g>
    </g>
    <g id="xtick_2">
     <g id="line2d_2">
      <g>
       <use style="stroke:#000000;stroke-width:0.8;" x="85.561765" xlink:href="#m5998519dc1" y="317.72"/>
      </g>
     </g>
     <g id="text_2">
      <!-- 100 -->
      <defs>
       <path d="M 12.40625 8.296875 
L 28.515625 8.296875 
L 28.515625 63.921875 
L 10.984375 60.40625 
L 10.984375 69.390625 
L 28.421875 72.90625 
L 38.28125 72.90625 
L 38.28125 8.296875 
L 54.390625 8.296875 
L 54.390625 0 
L 12.40625 0 
z
" id="DejaVuSans-49"/>
      </defs>
      <g transform="translate(76.018015 332.318437)scale(0.1 -0.1)">
       <use xlink:href="#DejaVuSans-49"/>
       <use x="63.623047" xlink:href="#DejaVuSans-48"/>
       <use x="127.246094" xlink:href="#DejaVuSans-48"/>
      </g>
     </g>
    </g>
    <g id="xtick_3">
     <g id="line2d_3">
      <g>
       <use style="stroke:#000000;stroke-width:0.8;" x="134.153529" xlink:href="#m5998519dc1" y="317.72"/>
      </g>
     </g>
     <g id="text_3">
      <!-- 200 -->
      <defs>
       <path d="M 19.1875 8.296875 
L 53.609375 8.296875 
L 53.609375 0 
L 7.328125 0 
L 7.328125 8.296875 
Q 12.9375 14.109375 22.625 23.890625 
Q 32.328125 33.6875 34.8125 36.53125 
Q 39.546875 41.84375 41.421875 45.53125 
Q 43.3125 49.21875 43.3125 52.78125 
Q 43.3125 58.59375 39.234375 62.25 
Q 35.15625 65.921875 28.609375 65.921875 
Q 23.96875 65.921875 18.8125 64.3125 
Q 13.671875 62.703125 7.8125 59.421875 
L 7.8125 69.390625 
Q 13.765625 71.78125 18.9375 73 
Q 24.125 74.21875 28.421875 74.21875 
Q 39.75 74.21875 46.484375 68.546875 
Q 53.21875 62.890625 53.21875 53.421875 
Q 53.21875 48.921875 51.53125 44.890625 
Q 49.859375 40.875 45.40625 35.40625 
Q 44.1875 33.984375 37.640625 27.21875 
Q 31.109375 20.453125 19.1875 8.296875 
z
" id="DejaVuSans-50"/>
      </defs>
      <g transform="translate(124.609779 332.318437)scale(0.1 -0.1)">
       <use xlink:href="#DejaVuSans-50"/>
       <use x="63.623047" xlink:href="#DejaVuSans-48"/>
       <use x="127.246094" xlink:href="#DejaVuSans-48"/>
      </g>
     </g>
    </g>
    <g id="xtick_4">
     <g id="line2d_4">
      <g>
       <use style="stroke:#000000;stroke-width:0.8;" x="182.745294" xlink:href="#m5998519dc1" y="317.72"/>
      </g>
     </g>
     <g id="text_4">
      <!-- 300 -->
      <defs>
       <path d="M 40.578125 39.3125 
Q 47.65625 37.796875 51.625 33 
Q 55.609375 28.21875 55.609375 21.1875 
Q 55.609375 10.40625 48.1875 4.484375 
Q 40.765625 -1.421875 27.09375 -1.421875 
Q 22.515625 -1.421875 17.65625 -0.515625 
Q 12.796875 0.390625 7.625 2.203125 
L 7.625 11.71875 
Q 11.71875 9.328125 16.59375 8.109375 
Q 21.484375 6.890625 26.8125 6.890625 
Q 36.078125 6.890625 40.9375 10.546875 
Q 45.796875 14.203125 45.796875 21.1875 
Q 45.796875 27.640625 41.28125 31.265625 
Q 36.765625 34.90625 28.71875 34.90625 
L 20.21875 34.90625 
L 20.21875 43.015625 
L 29.109375 43.015625 
Q 36.375 43.015625 40.234375 45.921875 
Q 44.09375 48.828125 44.09375 54.296875 
Q 44.09375 59.90625 40.109375 62.90625 
Q 36.140625 65.921875 28.71875 65.921875 
Q 24.65625 65.921875 20.015625 65.03125 
Q 15.375 64.15625 9.8125 62.3125 
L 9.8125 71.09375 
Q 15.4375 72.65625 20.34375 73.4375 
Q 25.25 74.21875 29.59375 74.21875 
Q 40.828125 74.21875 47.359375 69.109375 
Q 53.90625 64.015625 53.90625 55.328125 
Q 53.90625 49.265625 50.4375 45.09375 
Q 46.96875 40.921875 40.578125 39.3125 
z
" id="DejaVuSans-51"/>
      </defs>
      <g transform="translate(173.201544 332.318437)scale(0.1 -0.1)">
       <use xlink:href="#DejaVuSans-51"/>
       <use x="63.623047" xlink:href="#DejaVuSans-48"/>
       <use x="127.246094" xlink:href="#DejaVuSans-48"/>
      </g>
     </g>
    </g>
    <g id="xtick_5">
     <g id="line2d_5">
      <g>
       <use style="stroke:#000000;stroke-width:0.8;" x="231.337059" xlink:href="#m5998519dc1" y="317.72"/>
      </g>
     </g>
     <g id="text_5">
      <!-- 400 -->
      <defs>
       <path d="M 37.796875 64.3125 
L 12.890625 25.390625 
L 37.796875 25.390625 
z
M 35.203125 72.90625 
L 47.609375 72.90625 
L 47.609375 25.390625 
L 58.015625 25.390625 
L 58.015625 17.1875 
L 47.609375 17.1875 
L 47.609375 0 
L 37.796875 0 
L 37.796875 17.1875 
L 4.890625 17.1875 
L 4.890625 26.703125 
z
" id="DejaVuSans-52"/>
      </defs>
      <g transform="translate(221.793309 332.318437)scale(0.1 -0.1)">
       <use xlink:href="#DejaVuSans-52"/>
       <use x="63.623047" xlink:href="#DejaVuSans-48"/>
       <use x="127.246094" xlink:href="#DejaVuSans-48"/>
      </g>
     </g>
    </g>
    <g id="xtick_6">
     <g id="line2d_6">
      <g>
       <use style="stroke:#000000;stroke-width:0.8;" x="279.928824" xlink:href="#m5998519dc1" y="317.72"/>
      </g>
     </g>
     <g id="text_6">
      <!-- 500 -->
      <defs>
       <path d="M 10.796875 72.90625 
L 49.515625 72.90625 
L 49.515625 64.59375 
L 19.828125 64.59375 
L 19.828125 46.734375 
Q 21.96875 47.46875 24.109375 47.828125 
Q 26.265625 48.1875 28.421875 48.1875 
Q 40.625 48.1875 47.75 41.5 
Q 54.890625 34.8125 54.890625 23.390625 
Q 54.890625 11.625 47.5625 5.09375 
Q 40.234375 -1.421875 26.90625 -1.421875 
Q 22.3125 -1.421875 17.546875 -0.640625 
Q 12.796875 0.140625 7.71875 1.703125 
L 7.71875 11.625 
Q 12.109375 9.234375 16.796875 8.0625 
Q 21.484375 6.890625 26.703125 6.890625 
Q 35.15625 6.890625 40.078125 11.328125 
Q 45.015625 15.765625 45.015625 23.390625 
Q 45.015625 31 40.078125 35.4375 
Q 35.15625 39.890625 26.703125 39.890625 
Q 22.75 39.890625 18.8125 39.015625 
Q 14.890625 38.140625 10.796875 36.28125 
z
" id="DejaVuSans-53"/>
      </defs>
      <g transform="translate(270.385074 332.318437)scale(0.1 -0.1)">
       <use xlink:href="#DejaVuSans-53"/>
       <use x="63.623047" xlink:href="#DejaVuSans-48"/>
       <use x="127.246094" xlink:href="#DejaVuSans-48"/>
      </g>
     </g>
    </g>
    <g id="xtick_7">
     <g id="line2d_7">
      <g>
       <use style="stroke:#000000;stroke-width:0.8;" x="328.520588" xlink:href="#m5998519dc1" y="317.72"/>
      </g>
     </g>
     <g id="text_7">
      <!-- 600 -->
      <defs>
       <path d="M 33.015625 40.375 
Q 26.375 40.375 22.484375 35.828125 
Q 18.609375 31.296875 18.609375 23.390625 
Q 18.609375 15.53125 22.484375 10.953125 
Q 26.375 6.390625 33.015625 6.390625 
Q 39.65625 6.390625 43.53125 10.953125 
Q 47.40625 15.53125 47.40625 23.390625 
Q 47.40625 31.296875 43.53125 35.828125 
Q 39.65625 40.375 33.015625 40.375 
z
M 52.59375 71.296875 
L 52.59375 62.3125 
Q 48.875 64.0625 45.09375 64.984375 
Q 41.3125 65.921875 37.59375 65.921875 
Q 27.828125 65.921875 22.671875 59.328125 
Q 17.53125 52.734375 16.796875 39.40625 
Q 19.671875 43.65625 24.015625 45.921875 
Q 28.375 48.1875 33.59375 48.1875 
Q 44.578125 48.1875 50.953125 41.515625 
Q 57.328125 34.859375 57.328125 23.390625 
Q 57.328125 12.15625 50.6875 5.359375 
Q 44.046875 -1.421875 33.015625 -1.421875 
Q 20.359375 -1.421875 13.671875 8.265625 
Q 6.984375 17.96875 6.984375 36.375 
Q 6.984375 53.65625 15.1875 63.9375 
Q 23.390625 74.21875 37.203125 74.21875 
Q 40.921875 74.21875 44.703125 73.484375 
Q 48.484375 72.75 52.59375 71.296875 
z
" id="DejaVuSans-54"/>
      </defs>
      <g transform="translate(318.976838 332.318437)scale(0.1 -0.1)">
       <use xlink:href="#DejaVuSans-54"/>
       <use x="63.623047" xlink:href="#DejaVuSans-48"/>
       <use x="127.246094" xlink:href="#DejaVuSans-48"/>
      </g>
     </g>
    </g>
    <g id="xtick_8">
     <g id="line2d_8">
      <g>
       <use style="stroke:#000000;stroke-width:0.8;" x="377.112353" xlink:href="#m5998519dc1" y="317.72"/>
      </g>
     </g>
     <g id="text_8">
      <!-- 700 -->
      <defs>
       <path d="M 8.203125 72.90625 
L 55.078125 72.90625 
L 55.078125 68.703125 
L 28.609375 0 
L 18.3125 0 
L 43.21875 64.59375 
L 8.203125 64.59375 
z
" id="DejaVuSans-55"/>
      </defs>
      <g transform="translate(367.568603 332.318437)scale(0.1 -0.1)">
       <use xlink:href="#DejaVuSans-55"/>
       <use x="63.623047" xlink:href="#DejaVuSans-48"/>
       <use x="127.246094" xlink:href="#DejaVuSans-48"/>
      </g>
     </g>
    </g>
    <g id="xtick_9">
     <g id="line2d_9">
      <g>
       <use style="stroke:#000000;stroke-width:0.8;" x="425.704118" xlink:href="#m5998519dc1" y="317.72"/>
      </g>
     </g>
     <g id="text_9">
      <!-- 800 -->
      <defs>
       <path d="M 31.78125 34.625 
Q 24.75 34.625 20.71875 30.859375 
Q 16.703125 27.09375 16.703125 20.515625 
Q 16.703125 13.921875 20.71875 10.15625 
Q 24.75 6.390625 31.78125 6.390625 
Q 38.8125 6.390625 42.859375 10.171875 
Q 46.921875 13.96875 46.921875 20.515625 
Q 46.921875 27.09375 42.890625 30.859375 
Q 38.875 34.625 31.78125 34.625 
z
M 21.921875 38.8125 
Q 15.578125 40.375 12.03125 44.71875 
Q 8.5 49.078125 8.5 55.328125 
Q 8.5 64.0625 14.71875 69.140625 
Q 20.953125 74.21875 31.78125 74.21875 
Q 42.671875 74.21875 48.875 69.140625 
Q 55.078125 64.0625 55.078125 55.328125 
Q 55.078125 49.078125 51.53125 44.71875 
Q 48 40.375 41.703125 38.8125 
Q 48.828125 37.15625 52.796875 32.3125 
Q 56.78125 27.484375 56.78125 20.515625 
Q 56.78125 9.90625 50.3125 4.234375 
Q 43.84375 -1.421875 31.78125 -1.421875 
Q 19.734375 -1.421875 13.25 4.234375 
Q 6.78125 9.90625 6.78125 20.515625 
Q 6.78125 27.484375 10.78125 32.3125 
Q 14.796875 37.15625 21.921875 38.8125 
z
M 18.3125 54.390625 
Q 18.3125 48.734375 21.84375 45.5625 
Q 25.390625 42.390625 31.78125 42.390625 
Q 38.140625 42.390625 41.71875 45.5625 
Q 45.3125 48.734375 45.3125 54.390625 
Q 45.3125 60.0625 41.71875 63.234375 
Q 38.140625 66.40625 31.78125 66.40625 
Q 25.390625 66.40625 21.84375 63.234375 
Q 18.3125 60.0625 18.3125 54.390625 
z
" id="DejaVuSans-56"/>
      </defs>
      <g transform="translate(416.160368 332.318437)scale(0.1 -0.1)">
       <use xlink:href="#DejaVuSans-56"/>
       <use x="63.623047" xlink:href="#DejaVuSans-48"/>
       <use x="127.246094" xlink:href="#DejaVuSans-48"/>
      </g>
     </g>
    </g>
   </g>
   <g id="matplotlib.axis_2">
    <g id="ytick_1">
     <g id="line2d_10">
      <defs>
       <path d="M 0 0 
L -3.5 0 
" id="mdd619f04a6" style="stroke:#000000;stroke-width:0.8;"/>
      </defs>
      <g>
       <use style="stroke:#000000;stroke-width:0.8;" x="36.97" xlink:href="#mdd619f04a6" y="317.72"/>
      </g>
     </g>
     <g id="text_10">
      <!-- 0 -->
      <g transform="translate(23.6075 321.519219)scale(0.1 -0.1)">
       <use xlink:href="#DejaVuSans-48"/>
      </g>
     </g>
    </g>
    <g id="ytick_2">
     <g id="line2d_11">
      <g>
       <use style="stroke:#000000;stroke-width:0.8;" x="36.97" xlink:href="#mdd619f04a6" y="283.617778"/>
      </g>
     </g>
     <g id="text_11">
      <!-- 50 -->
      <g transform="translate(17.245 287.416997)scale(0.1 -0.1)">
       <use xlink:href="#DejaVuSans-53"/>
       <use x="63.623047" xlink:href="#DejaVuSans-48"/>
      </g>
     </g>
    </g>
    <g id="ytick_3">
     <g id="line2d_12">
      <g>
       <use style="stroke:#000000;stroke-width:0.8;" x="36.97" xlink:href="#mdd619f04a6" y="249.515556"/>
      </g>
     </g>
     <g id="text_12">
      <!-- 100 -->
      <g transform="translate(10.8825 253.314774)scale(0.1 -0.1)">
       <use xlink:href="#DejaVuSans-49"/>
       <use x="63.623047" xlink:href="#DejaVuSans-48"/>
       <use x="127.246094" xlink:href="#DejaVuSans-48"/>
      </g>
     </g>
    </g>
    <g id="ytick_4">
     <g id="line2d_13">
      <g>
       <use style="stroke:#000000;stroke-width:0.8;" x="36.97" xlink:href="#mdd619f04a6" y="215.413333"/>
      </g>
     </g>
     <g id="text_13">
      <!-- 150 -->
      <g transform="translate(10.8825 219.212552)scale(0.1 -0.1)">
       <use xlink:href="#DejaVuSans-49"/>
       <use x="63.623047" xlink:href="#DejaVuSans-53"/>
       <use x="127.246094" xlink:href="#DejaVuSans-48"/>
      </g>
     </g>
    </g>
    <g id="ytick_5">
     <g id="line2d_14">
      <g>
       <use style="stroke:#000000;stroke-width:0.8;" x="36.97" xlink:href="#mdd619f04a6" y="181.311111"/>
      </g>
     </g>
     <g id="text_14">
      <!-- 200 -->
      <g transform="translate(10.8825 185.11033)scale(0.1 -0.1)">
       <use xlink:href="#DejaVuSans-50"/>
       <use x="63.623047" xlink:href="#DejaVuSans-48"/>
       <use x="127.246094" xlink:href="#DejaVuSans-48"/>
      </g>
     </g>
    </g>
    <g id="ytick_6">
     <g id="line2d_15">
      <g>
       <use style="stroke:#000000;stroke-width:0.8;" x="36.97" xlink:href="#mdd619f04a6" y="147.208889"/>
      </g>
     </g>
     <g id="text_15">
      <!-- 250 -->
      <g transform="translate(10.8825 151.008108)scale(0.1 -0.1)">
       <use xlink:href="#DejaVuSans-50"/>
       <use x="63.623047" xlink:href="#DejaVuSans-53"/>
       <use x="127.246094" xlink:href="#DejaVuSans-48"/>
      </g>
     </g>
    </g>
    <g id="ytick_7">
     <g id="line2d_16">
      <g>
       <use style="stroke:#000000;stroke-width:0.8;" x="36.97" xlink:href="#mdd619f04a6" y="113.106667"/>
      </g>
     </g>
     <g id="text_16">
      <!-- 300 -->
      <g transform="translate(10.8825 116.905885)scale(0.1 -0.1)">
       <use xlink:href="#DejaVuSans-51"/>
       <use x="63.623047" xlink:href="#DejaVuSans-48"/>
       <use x="127.246094" xlink:href="#DejaVuSans-48"/>
      </g>
     </g>
    </g>
    <g id="ytick_8">
     <g id="line2d_17">
      <g>
       <use style="stroke:#000000;stroke-width:0.8;" x="36.97" xlink:href="#mdd619f04a6" y="79.004444"/>
      </g>
     </g>
     <g id="text_17">
      <!-- 350 -->
      <g transform="translate(10.8825 82.803663)scale(0.1 -0.1)">
       <use xlink:href="#DejaVuSans-51"/>
       <use x="63.623047" xlink:href="#DejaVuSans-53"/>
       <use x="127.246094" xlink:href="#DejaVuSans-48"/>
      </g>
     </g>
    </g>
    <g id="ytick_9">
     <g id="line2d_18">
      <g>
       <use style="stroke:#000000;stroke-width:0.8;" x="36.97" xlink:href="#mdd619f04a6" y="44.902222"/>
      </g>
     </g>
     <g id="text_18">
      <!-- 400 -->
      <g transform="translate(10.8825 48.701441)scale(0.1 -0.1)">
       <use xlink:href="#DejaVuSans-52"/>
       <use x="63.623047" xlink:href="#DejaVuSans-48"/>
       <use x="127.246094" xlink:href="#DejaVuSans-48"/>
      </g>
     </g>
    </g>
    <g id="ytick_10">
     <g id="line2d_19">
      <g>
       <use style="stroke:#000000;stroke-width:0.8;" x="36.97" xlink:href="#mdd619f04a6" y="10.8"/>
      </g>
     </g>
     <g id="text_19">
      <!-- 450 -->
      <g transform="translate(10.8825 14.599219)scale(0.1 -0.1)">
       <use xlink:href="#DejaVuSans-52"/>
       <use x="63.623047" xlink:href="#DejaVuSans-53"/>
       <use x="127.246094" xlink:href="#DejaVuSans-48"/>
      </g>
     </g>
    </g>
   </g>
   <g id="line2d_20">
    <path clip-path="url(#p49af2736f4)" d="M 37.018592 317.072787 
L 38.352304 307.103745 
L 39.686016 299.950507 
L 41.019729 293.949651 
L 42.353441 288.702611 
L 43.687153 284.017948 
L 45.020866 279.782299 
L 46.354578 275.920517 
L 47.68829 272.379076 
L 49.022003 269.117892 
L 50.355715 266.105815 
L 51.689427 263.317937 
L 53.02314 260.733886 
L 54.356852 258.336687 
L 55.690564 256.111976 
L 57.024276 254.047444 
L 58.357989 252.132421 
L 59.691701 250.357573 
L 61.025413 248.714661 
L 62.359126 247.196362 
L 63.692838 245.796125 
L 65.02655 244.508052 
L 66.360263 243.326807 
L 67.693975 242.247538 
L 69.027687 241.265817 
L 70.3614 240.377582 
L 71.695112 239.579098 
L 73.028824 238.866915 
L 74.362537 238.23784 
L 75.696249 237.688908 
L 77.029961 237.217357 
L 78.363674 236.82061 
L 79.697386 236.496256 
L 81.031098 236.242035 
L 82.36481 236.055822 
L 83.698523 235.93562 
L 85.032235 235.879544 
L 86.365947 235.885814 
L 87.69966 235.952746 
L 89.033372 236.078744 
L 90.367084 236.262296 
L 91.700797 236.501963 
L 93.034509 236.796379 
L 94.368221 237.144239 
L 95.701934 237.544303 
L 97.035646 237.995383 
L 98.369358 238.496349 
L 99.703071 239.046115 
L 101.036783 239.643644 
L 102.370495 240.287942 
L 103.704208 240.978054 
L 105.03792 241.713065 
L 106.371632 242.492096 
L 107.705344 243.314299 
L 109.039057 244.178861 
L 110.372769 245.084998 
L 111.706481 246.031955 
L 113.040194 247.019003 
L 114.373906 248.045438 
L 115.707618 249.110583 
L 117.041331 250.213781 
L 118.375043 251.354399 
L 119.708755 252.531823 
L 121.042468 253.74546 
L 122.37618 254.994736 
L 123.709892 256.279094 
L 125.043605 257.597994 
L 126.377317 258.950913 
L 127.711029 260.337345 
L 129.044742 261.756796 
L 130.378454 263.208787 
L 131.712166 264.692855 
L 133.045878 266.208548 
L 134.379591 267.755426 
L 135.713303 269.333064 
L 137.047015 270.941044 
L 138.380728 272.578963 
L 139.71444 274.246427 
L 141.048152 275.943052 
L 142.381865 277.668466 
L 143.715577 279.422302 
L 145.049289 281.204207 
L 146.383002 283.013835 
L 147.716714 284.850846 
L 149.050426 286.714911 
L 150.384139 288.605709 
L 151.717851 290.522924 
L 153.051563 292.466251 
L 154.385276 294.435388 
L 155.718988 296.430043 
L 157.0527 298.449929 
L 158.386412 300.494765 
L 159.720125 302.564279 
L 161.053837 304.6582 
L 162.387549 306.776268 
L 163.721262 308.918226 
L 165.054974 311.083821 
L 166.388686 313.272809 
L 167.722399 315.484947 
L 169.056111 317.72 
" style="fill:none;stroke:#1f77b4;stroke-linecap:square;stroke-width:1.5;"/>
   </g>
   <g id="line2d_21">
    <path clip-path="url(#p49af2736f4)" d="M 37.018592 317.016056 
L 39.686507 296.776602 
L 42.354423 282.412663 
L 45.022338 270.37674 
L 47.690254 259.858187 
L 50.358169 250.469805 
L 53.026085 241.982922 
L 55.694 234.246195 
L 58.361915 227.151943 
L 61.029831 220.619589 
L 63.697746 214.586551 
L 66.365662 209.002814 
L 69.033577 203.82748 
L 71.701493 199.026486 
L 74.369408 194.571018 
L 77.037324 190.436382 
L 79.705239 186.601185 
L 82.373155 183.046706 
L 85.04107 179.756431 
L 87.708985 176.715682 
L 90.376901 173.911325 
L 93.044816 171.331542 
L 95.712732 168.96564 
L 98.380647 166.803898 
L 101.048563 164.83744 
L 103.716478 163.058132 
L 106.384394 161.458488 
L 109.052309 160.0316 
L 111.720225 158.771071 
L 114.38814 157.670961 
L 117.056055 156.725739 
L 119.723971 155.930244 
L 122.391886 155.279646 
L 125.059802 154.76942 
L 127.727717 154.395311 
L 130.395633 154.153318 
L 133.063548 154.039668 
L 135.731464 154.050794 
L 138.399379 154.183327 
L 141.067295 154.434072 
L 143.73521 154.799999 
L 146.403126 155.278228 
L 149.071041 155.866022 
L 151.738956 156.560772 
L 154.406872 157.359992 
L 157.074787 158.261308 
L 159.742703 159.262452 
L 162.410618 160.361253 
L 165.078534 161.555635 
L 167.746449 162.843607 
L 170.414365 164.223259 
L 173.08228 165.692759 
L 175.750196 167.250344 
L 178.418111 168.894321 
L 181.086026 170.623061 
L 183.753942 172.434994 
L 186.421857 174.328608 
L 189.089773 176.302445 
L 191.757688 178.355097 
L 194.425604 180.485207 
L 197.093519 182.69146 
L 199.761435 184.972589 
L 202.42935 187.327367 
L 205.097266 189.754605 
L 207.765181 192.253155 
L 210.433096 194.821901 
L 213.101012 197.459764 
L 215.768927 200.165697 
L 218.436843 202.938685 
L 221.104758 205.77774 
L 223.772674 208.681907 
L 226.440589 211.650255 
L 229.108505 214.681881 
L 231.77642 217.775905 
L 234.444336 220.931473 
L 237.112251 224.147753 
L 239.780167 227.423937 
L 242.448082 230.759235 
L 245.115997 234.152881 
L 247.783913 237.604127 
L 250.451828 241.112243 
L 253.119744 244.676519 
L 255.787659 248.296262 
L 258.455575 251.970795 
L 261.12349 255.699458 
L 263.791406 259.481607 
L 266.459321 263.316614 
L 269.127237 267.203862 
L 271.795152 271.142753 
L 274.463067 275.132698 
L 277.130983 279.173126 
L 279.798898 283.263474 
L 282.466814 287.403194 
L 285.134729 291.59175 
L 287.802645 295.828617 
L 290.47056 300.113281 
L 293.138476 304.445239 
L 295.806391 308.823998 
L 298.474307 313.249076 
L 301.142222 317.72 
" style="fill:none;stroke:#ff7f0e;stroke-linecap:square;stroke-width:1.5;"/>
   </g>
   <g id="line2d_22">
    <path clip-path="url(#p49af2736f4)" d="M 37.018592 316.982871 
L 41.02071 286.449934 
L 45.022829 264.875054 
L 49.024948 246.803984 
L 53.027066 231.013877 
L 57.029185 216.921751 
L 61.031303 204.183617 
L 65.033422 192.571935 
L 69.035541 181.924863 
L 73.037659 172.121332 
L 77.039778 163.067328 
L 81.041896 154.687726 
L 85.044015 146.921107 
L 89.046134 139.716315 
L 93.048252 133.030086 
L 97.050371 126.825345 
L 101.052489 121.06997 
L 105.054608 115.735859 
L 109.056727 110.79822 
L 113.058845 106.235019 
L 117.060964 102.026542 
L 121.063082 98.155048 
L 125.065201 94.604487 
L 129.06732 91.36027 
L 133.069438 88.409075 
L 137.071557 85.738692 
L 141.073675 83.337889 
L 145.075794 81.196296 
L 149.077913 79.304312 
L 153.080031 77.653023 
L 157.08215 76.23413 
L 161.084268 75.039886 
L 165.086387 74.063044 
L 169.088506 73.296812 
L 173.090624 72.734807 
L 177.092743 72.371022 
L 181.094861 72.199796 
L 185.09698 72.21578 
L 189.099099 72.413914 
L 193.101217 72.789405 
L 197.103336 73.337706 
L 201.105454 74.054497 
L 205.107573 74.93567 
L 209.109692 75.97731 
L 213.11181 77.175686 
L 217.113929 78.527236 
L 221.116047 80.028558 
L 225.118166 81.676394 
L 229.120285 83.467629 
L 233.122403 85.399275 
L 237.124522 87.468467 
L 241.12664 89.672455 
L 245.128759 92.008594 
L 249.130877 94.474346 
L 253.132996 97.067263 
L 257.135115 99.784992 
L 261.137233 102.625263 
L 265.139352 105.585889 
L 269.14147 108.664758 
L 273.143589 111.859832 
L 277.145708 115.169141 
L 281.147826 118.590781 
L 285.149945 122.122912 
L 289.152063 125.763752 
L 293.154182 129.511575 
L 297.156301 133.364709 
L 301.158419 137.321535 
L 305.160538 141.380482 
L 309.162656 145.540025 
L 313.164775 149.798686 
L 317.166894 154.155028 
L 321.169012 158.607656 
L 325.171131 163.155214 
L 329.173249 167.796383 
L 333.175368 172.529882 
L 337.177487 177.354463 
L 341.179605 182.268911 
L 345.181724 187.272044 
L 349.183842 192.362711 
L 353.185961 197.539789 
L 357.18808 202.802184 
L 361.190198 208.148831 
L 365.192317 213.578689 
L 369.194435 219.090744 
L 373.196554 224.684005 
L 377.198673 230.357506 
L 381.200791 236.110303 
L 385.20291 241.941474 
L 389.205028 247.850117 
L 393.207147 253.835354 
L 397.209266 259.896323 
L 401.211384 266.032182 
L 405.213503 272.24211 
L 409.215621 278.525301 
L 413.21774 284.880967 
L 417.219859 291.308337 
L 421.221977 297.806657 
L 425.224096 304.375187 
L 429.226214 311.013205 
L 433.228333 317.72 
" style="fill:none;stroke:#2ca02c;stroke-linecap:square;stroke-width:1.5;"/>
   </g>
   <g id="line2d_23">
    <path clip-path="url(#p49af2736f4)" d="M 36.97 317.72 
L 38.687891 314.826478 
L 40.405781 311.932956 
L 42.123672 309.039434 
L 43.841563 306.145912 
L 45.559453 303.252391 
L 47.277344 300.358869 
L 48.995235 297.465347 
L 50.713125 294.571825 
L 52.431016 291.678303 
L 54.148907 288.784781 
L 55.866797 285.891259 
L 57.584688 282.997737 
L 59.302579 280.104215 
L 61.020469 277.210694 
L 62.73836 274.317172 
L 64.456251 271.42365 
L 66.174141 268.530128 
L 67.892032 265.636606 
L 69.609923 262.743084 
L 71.327813 259.849562 
L 73.045704 256.95604 
L 74.763595 254.062519 
L 76.481485 251.168997 
L 78.199376 248.275475 
L 79.917267 245.381953 
L 81.635157 242.488431 
L 83.353048 239.594909 
L 85.070939 236.701387 
L 86.788829 233.807865 
L 88.50672 230.914343 
L 90.224611 228.020822 
L 91.942501 225.1273 
L 93.660392 222.233778 
L 95.378283 219.340256 
L 97.096173 216.446734 
L 98.814064 213.553212 
L 100.531955 210.65969 
L 102.249846 207.766168 
L 103.967736 204.872646 
L 105.685627 201.979125 
L 107.403518 199.085603 
L 109.121408 196.192081 
L 110.839299 193.298559 
L 112.55719 190.405037 
L 114.27508 187.511515 
L 115.992971 184.617993 
L 117.710862 181.724471 
L 119.428752 178.830949 
L 121.146643 175.937428 
L 122.864534 173.043906 
L 124.582424 170.150384 
L 126.300315 167.256862 
L 128.018206 164.36334 
L 129.736096 161.469818 
L 131.453987 158.576296 
L 133.171878 155.682774 
L 134.889768 152.789253 
L 136.607659 149.895731 
L 138.32555 147.002209 
L 140.04344 144.108687 
L 141.761331 141.215165 
L 143.479222 138.321643 
L 145.197112 135.428121 
L 146.915003 132.534599 
L 148.632894 129.641077 
L 150.350784 126.747556 
L 152.068675 123.854034 
L 153.786566 120.960512 
L 155.504456 118.06699 
L 157.222347 115.173468 
L 158.940238 112.279946 
L 160.658128 109.386424 
L 162.376019 106.492902 
L 164.09391 103.59938 
L 165.8118 100.705859 
L 167.529691 97.812337 
L 169.247582 94.918815 
L 170.965472 92.025293 
L 172.683363 89.131771 
L 174.401254 86.238249 
L 176.119144 83.344727 
L 177.837035 80.451205 
L 179.554926 77.557684 
L 181.272816 74.664162 
L 182.990707 71.77064 
L 184.708598 68.877118 
L 186.426488 65.983596 
L 188.144379 63.090074 
L 189.86227 60.196552 
L 191.58016 57.30303 
L 193.298051 54.409508 
L 195.015942 51.515987 
L 196.733832 48.622465 
L 198.451723 45.728943 
L 200.169614 42.835421 
L 201.887504 39.941899 
L 203.605395 37.048377 
L 205.323286 34.154855 
L 207.041176 31.261333 
" style="fill:none;stroke:#d62728;stroke-linecap:square;stroke-width:1.5;"/>
   </g>
   <g id="patch_3">
    <path d="M 36.97 317.72 
L 36.97 10.8 
" style="fill:none;stroke:#000000;stroke-linecap:square;stroke-linejoin:miter;stroke-width:0.8;"/>
   </g>
   <g id="patch_4">
    <path d="M 450 317.72 
L 450 10.8 
" style="fill:none;stroke:#000000;stroke-linecap:square;stroke-linejoin:miter;stroke-width:0.8;"/>
   </g>
   <g id="patch_5">
    <path d="M 36.97 317.72 
L 450 317.72 
" style="fill:none;stroke:#000000;stroke-linecap:square;stroke-linejoin:miter;stroke-width:0.8;"/>
   </g>
   <g id="patch_6">
    <path d="M 36.97 10.8 
L 450 10.8 
" style="fill:none;stroke:#000000;stroke-linecap:square;stroke-linejoin:miter;stroke-width:0.8;"/>
   </g>
   <g id="text_20">
    <!-- $q=Mp(1-\ln\frac{p}{p_i})$ -->
    <defs>
     <path d="M 41.703125 8.203125 
Q 38.09375 3.46875 33.171875 1.015625 
Q 28.265625 -1.421875 22.3125 -1.421875 
Q 14.015625 -1.421875 9.296875 4.171875 
Q 4.59375 9.765625 4.59375 19.578125 
Q 4.59375 27.484375 7.5 34.859375 
Q 10.40625 42.234375 15.828125 48.09375 
Q 19.34375 51.90625 23.90625 53.953125 
Q 28.46875 56 33.5 56 
Q 39.546875 56 43.453125 53.609375 
Q 47.359375 51.21875 49.125 46.390625 
L 50.6875 54.59375 
L 59.71875 54.59375 
L 45.125 -20.609375 
L 36.078125 -20.609375 
z
M 13.921875 20.90625 
Q 13.921875 13.671875 16.9375 9.890625 
Q 19.96875 6.109375 25.6875 6.109375 
Q 34.1875 6.109375 40.1875 14.234375 
Q 46.1875 22.359375 46.1875 33.984375 
Q 46.1875 41.015625 43.078125 44.75 
Q 39.984375 48.484375 34.1875 48.484375 
Q 29.9375 48.484375 26.3125 46.5 
Q 22.703125 44.53125 20.015625 40.71875 
Q 17.1875 36.71875 15.546875 31.34375 
Q 13.921875 25.984375 13.921875 20.90625 
z
" id="DejaVuSans-Oblique-113"/>
     <path d="M 10.59375 45.40625 
L 73.1875 45.40625 
L 73.1875 37.203125 
L 10.59375 37.203125 
z
M 10.59375 25.484375 
L 73.1875 25.484375 
L 73.1875 17.1875 
L 10.59375 17.1875 
z
" id="DejaVuSans-61"/>
     <path d="M 16.890625 72.90625 
L 31.6875 72.90625 
L 40.1875 23.78125 
L 68.40625 72.90625 
L 83.59375 72.90625 
L 69.390625 0 
L 59.8125 0 
L 72.21875 63.921875 
L 43.609375 14.015625 
L 33.984375 14.015625 
L 24.703125 64.109375 
L 12.3125 0 
L 2.6875 0 
z
" id="DejaVuSans-Oblique-77"/>
     <path d="M 49.609375 33.6875 
Q 49.609375 40.875 46.484375 44.671875 
Q 43.359375 48.484375 37.5 48.484375 
Q 33.5 48.484375 29.859375 46.4375 
Q 26.21875 44.390625 23.390625 40.484375 
Q 20.609375 36.625 18.9375 31.15625 
Q 17.28125 25.6875 17.28125 20.3125 
Q 17.28125 13.484375 20.40625 9.796875 
Q 23.53125 6.109375 29.296875 6.109375 
Q 33.546875 6.109375 37.1875 8.109375 
Q 40.828125 10.109375 43.40625 13.921875 
Q 46.1875 17.921875 47.890625 23.34375 
Q 49.609375 28.765625 49.609375 33.6875 
z
M 21.78125 46.390625 
Q 25.390625 51.125 30.296875 53.5625 
Q 35.203125 56 41.21875 56 
Q 49.609375 56 54.25 50.5 
Q 58.890625 45.015625 58.890625 35.109375 
Q 58.890625 27 56 19.65625 
Q 53.125 12.3125 47.703125 6.5 
Q 44.09375 2.640625 39.546875 0.609375 
Q 35.015625 -1.421875 29.984375 -1.421875 
Q 24.171875 -1.421875 20.21875 1 
Q 16.265625 3.421875 14.3125 8.203125 
L 8.6875 -20.796875 
L -0.296875 -20.796875 
L 14.40625 54.6875 
L 23.390625 54.6875 
z
" id="DejaVuSans-Oblique-112"/>
     <path d="M 31 75.875 
Q 24.46875 64.65625 21.28125 53.65625 
Q 18.109375 42.671875 18.109375 31.390625 
Q 18.109375 20.125 21.3125 9.0625 
Q 24.515625 -2 31 -13.1875 
L 23.1875 -13.1875 
Q 15.875 -1.703125 12.234375 9.375 
Q 8.59375 20.453125 8.59375 31.390625 
Q 8.59375 42.28125 12.203125 53.3125 
Q 15.828125 64.359375 23.1875 75.875 
z
" id="DejaVuSans-40"/>
     <path d="M 10.59375 35.5 
L 73.1875 35.5 
L 73.1875 27.203125 
L 10.59375 27.203125 
z
" id="DejaVuSans-8722"/>
     <path d="M 9.421875 75.984375 
L 18.40625 75.984375 
L 18.40625 0 
L 9.421875 0 
z
" id="DejaVuSans-108"/>
     <path d="M 54.890625 33.015625 
L 54.890625 0 
L 45.90625 0 
L 45.90625 32.71875 
Q 45.90625 40.484375 42.875 44.328125 
Q 39.84375 48.1875 33.796875 48.1875 
Q 26.515625 48.1875 22.3125 43.546875 
Q 18.109375 38.921875 18.109375 30.90625 
L 18.109375 0 
L 9.078125 0 
L 9.078125 54.6875 
L 18.109375 54.6875 
L 18.109375 46.1875 
Q 21.34375 51.125 25.703125 53.5625 
Q 30.078125 56 35.796875 56 
Q 45.21875 56 50.046875 50.171875 
Q 54.890625 44.34375 54.890625 33.015625 
z
" id="DejaVuSans-110"/>
     <path d="M 18.3125 75.984375 
L 27.296875 75.984375 
L 25.09375 64.59375 
L 16.109375 64.59375 
z
M 14.203125 54.6875 
L 23.1875 54.6875 
L 12.5 0 
L 3.515625 0 
z
" id="DejaVuSans-Oblique-105"/>
     <path d="M 8.015625 75.875 
L 15.828125 75.875 
Q 23.140625 64.359375 26.78125 53.3125 
Q 30.421875 42.28125 30.421875 31.390625 
Q 30.421875 20.453125 26.78125 9.375 
Q 23.140625 -1.703125 15.828125 -13.1875 
L 8.015625 -13.1875 
Q 14.5 -2 17.703125 9.0625 
Q 20.90625 20.125 20.90625 31.390625 
Q 20.90625 42.671875 17.703125 53.65625 
Q 14.5 64.65625 8.015625 75.875 
z
" id="DejaVuSans-41"/>
    </defs>
    <g transform="translate(61.265882 58.543111)scale(0.15 -0.15)">
     <use transform="translate(0 0.445312)" xlink:href="#DejaVuSans-Oblique-113"/>
     <use transform="translate(82.958984 0.445312)" xlink:href="#DejaVuSans-61"/>
     <use transform="translate(186.230469 0.445312)" xlink:href="#DejaVuSans-Oblique-77"/>
     <use transform="translate(272.509766 0.445312)" xlink:href="#DejaVuSans-Oblique-112"/>
     <use transform="translate(335.986328 0.445312)" xlink:href="#DejaVuSans-40"/>
     <use transform="translate(375 0.445312)" xlink:href="#DejaVuSans-49"/>
     <use transform="translate(458.105469 0.445312)" xlink:href="#DejaVuSans-8722"/>
     <use transform="translate(561.376953 0.445312)" xlink:href="#DejaVuSans-108"/>
     <use transform="translate(589.160156 0.445312)" xlink:href="#DejaVuSans-110"/>
     <use transform="translate(660.539062 58.8)scale(0.7)" xlink:href="#DejaVuSans-Oblique-112"/>
     <use transform="translate(652.539062 -26.207812)scale(0.7)" xlink:href="#DejaVuSans-Oblique-112"/>
     <use transform="translate(696.972656 -37.692187)scale(0.49)" xlink:href="#DejaVuSans-Oblique-105"/>
     <use transform="translate(725.000488 0.445312)" xlink:href="#DejaVuSans-41"/>
     <path d="M 652.539062 19.242188 
L 652.539062 25.492188 
L 712.500488 25.492188 
L 712.500488 19.242188 
L 652.539062 19.242188 
z
"/>
    </g>
   </g>
   <g id="text_21">
    <!-- $p_i$ controls the size of the yield surface -->
    <defs>
     <path id="DejaVuSans-32"/>
     <path d="M 48.78125 52.59375 
L 48.78125 44.1875 
Q 44.96875 46.296875 41.140625 47.34375 
Q 37.3125 48.390625 33.40625 48.390625 
Q 24.65625 48.390625 19.8125 42.84375 
Q 14.984375 37.3125 14.984375 27.296875 
Q 14.984375 17.28125 19.8125 11.734375 
Q 24.65625 6.203125 33.40625 6.203125 
Q 37.3125 6.203125 41.140625 7.25 
Q 44.96875 8.296875 48.78125 10.40625 
L 48.78125 2.09375 
Q 45.015625 0.34375 40.984375 -0.53125 
Q 36.96875 -1.421875 32.421875 -1.421875 
Q 20.0625 -1.421875 12.78125 6.34375 
Q 5.515625 14.109375 5.515625 27.296875 
Q 5.515625 40.671875 12.859375 48.328125 
Q 20.21875 56 33.015625 56 
Q 37.15625 56 41.109375 55.140625 
Q 45.0625 54.296875 48.78125 52.59375 
z
" id="DejaVuSans-99"/>
     <path d="M 30.609375 48.390625 
Q 23.390625 48.390625 19.1875 42.75 
Q 14.984375 37.109375 14.984375 27.296875 
Q 14.984375 17.484375 19.15625 11.84375 
Q 23.34375 6.203125 30.609375 6.203125 
Q 37.796875 6.203125 41.984375 11.859375 
Q 46.1875 17.53125 46.1875 27.296875 
Q 46.1875 37.015625 41.984375 42.703125 
Q 37.796875 48.390625 30.609375 48.390625 
z
M 30.609375 56 
Q 42.328125 56 49.015625 48.375 
Q 55.71875 40.765625 55.71875 27.296875 
Q 55.71875 13.875 49.015625 6.21875 
Q 42.328125 -1.421875 30.609375 -1.421875 
Q 18.84375 -1.421875 12.171875 6.21875 
Q 5.515625 13.875 5.515625 27.296875 
Q 5.515625 40.765625 12.171875 48.375 
Q 18.84375 56 30.609375 56 
z
" id="DejaVuSans-111"/>
     <path d="M 18.3125 70.21875 
L 18.3125 54.6875 
L 36.8125 54.6875 
L 36.8125 47.703125 
L 18.3125 47.703125 
L 18.3125 18.015625 
Q 18.3125 11.328125 20.140625 9.421875 
Q 21.96875 7.515625 27.59375 7.515625 
L 36.8125 7.515625 
L 36.8125 0 
L 27.59375 0 
Q 17.1875 0 13.234375 3.875 
Q 9.28125 7.765625 9.28125 18.015625 
L 9.28125 47.703125 
L 2.6875 47.703125 
L 2.6875 54.6875 
L 9.28125 54.6875 
L 9.28125 70.21875 
z
" id="DejaVuSans-116"/>
     <path d="M 41.109375 46.296875 
Q 39.59375 47.171875 37.8125 47.578125 
Q 36.03125 48 33.890625 48 
Q 26.265625 48 22.1875 43.046875 
Q 18.109375 38.09375 18.109375 28.8125 
L 18.109375 0 
L 9.078125 0 
L 9.078125 54.6875 
L 18.109375 54.6875 
L 18.109375 46.1875 
Q 20.953125 51.171875 25.484375 53.578125 
Q 30.03125 56 36.53125 56 
Q 37.453125 56 38.578125 55.875 
Q 39.703125 55.765625 41.0625 55.515625 
z
" id="DejaVuSans-114"/>
     <path d="M 44.28125 53.078125 
L 44.28125 44.578125 
Q 40.484375 46.53125 36.375 47.5 
Q 32.28125 48.484375 27.875 48.484375 
Q 21.1875 48.484375 17.84375 46.4375 
Q 14.5 44.390625 14.5 40.28125 
Q 14.5 37.15625 16.890625 35.375 
Q 19.28125 33.59375 26.515625 31.984375 
L 29.59375 31.296875 
Q 39.15625 29.25 43.1875 25.515625 
Q 47.21875 21.78125 47.21875 15.09375 
Q 47.21875 7.46875 41.1875 3.015625 
Q 35.15625 -1.421875 24.609375 -1.421875 
Q 20.21875 -1.421875 15.453125 -0.5625 
Q 10.6875 0.296875 5.421875 2 
L 5.421875 11.28125 
Q 10.40625 8.6875 15.234375 7.390625 
Q 20.0625 6.109375 24.8125 6.109375 
Q 31.15625 6.109375 34.5625 8.28125 
Q 37.984375 10.453125 37.984375 14.40625 
Q 37.984375 18.0625 35.515625 20.015625 
Q 33.0625 21.96875 24.703125 23.78125 
L 21.578125 24.515625 
Q 13.234375 26.265625 9.515625 29.90625 
Q 5.8125 33.546875 5.8125 39.890625 
Q 5.8125 47.609375 11.28125 51.796875 
Q 16.75 56 26.8125 56 
Q 31.78125 56 36.171875 55.265625 
Q 40.578125 54.546875 44.28125 53.078125 
z
" id="DejaVuSans-115"/>
     <path d="M 54.890625 33.015625 
L 54.890625 0 
L 45.90625 0 
L 45.90625 32.71875 
Q 45.90625 40.484375 42.875 44.328125 
Q 39.84375 48.1875 33.796875 48.1875 
Q 26.515625 48.1875 22.3125 43.546875 
Q 18.109375 38.921875 18.109375 30.90625 
L 18.109375 0 
L 9.078125 0 
L 9.078125 75.984375 
L 18.109375 75.984375 
L 18.109375 46.1875 
Q 21.34375 51.125 25.703125 53.5625 
Q 30.078125 56 35.796875 56 
Q 45.21875 56 50.046875 50.171875 
Q 54.890625 44.34375 54.890625 33.015625 
z
" id="DejaVuSans-104"/>
     <path d="M 56.203125 29.59375 
L 56.203125 25.203125 
L 14.890625 25.203125 
Q 15.484375 15.921875 20.484375 11.0625 
Q 25.484375 6.203125 34.421875 6.203125 
Q 39.59375 6.203125 44.453125 7.46875 
Q 49.3125 8.734375 54.109375 11.28125 
L 54.109375 2.78125 
Q 49.265625 0.734375 44.1875 -0.34375 
Q 39.109375 -1.421875 33.890625 -1.421875 
Q 20.796875 -1.421875 13.15625 6.1875 
Q 5.515625 13.8125 5.515625 26.8125 
Q 5.515625 40.234375 12.765625 48.109375 
Q 20.015625 56 32.328125 56 
Q 43.359375 56 49.78125 48.890625 
Q 56.203125 41.796875 56.203125 29.59375 
z
M 47.21875 32.234375 
Q 47.125 39.59375 43.09375 43.984375 
Q 39.0625 48.390625 32.421875 48.390625 
Q 24.90625 48.390625 20.390625 44.140625 
Q 15.875 39.890625 15.1875 32.171875 
z
" id="DejaVuSans-101"/>
     <path d="M 9.421875 54.6875 
L 18.40625 54.6875 
L 18.40625 0 
L 9.421875 0 
z
M 9.421875 75.984375 
L 18.40625 75.984375 
L 18.40625 64.59375 
L 9.421875 64.59375 
z
" id="DejaVuSans-105"/>
     <path d="M 5.515625 54.6875 
L 48.1875 54.6875 
L 48.1875 46.484375 
L 14.40625 7.171875 
L 48.1875 7.171875 
L 48.1875 0 
L 4.296875 0 
L 4.296875 8.203125 
L 38.09375 47.515625 
L 5.515625 47.515625 
z
" id="DejaVuSans-122"/>
     <path d="M 37.109375 75.984375 
L 37.109375 68.5 
L 28.515625 68.5 
Q 23.6875 68.5 21.796875 66.546875 
Q 19.921875 64.59375 19.921875 59.515625 
L 19.921875 54.6875 
L 34.71875 54.6875 
L 34.71875 47.703125 
L 19.921875 47.703125 
L 19.921875 0 
L 10.890625 0 
L 10.890625 47.703125 
L 2.296875 47.703125 
L 2.296875 54.6875 
L 10.890625 54.6875 
L 10.890625 58.5 
Q 10.890625 67.625 15.140625 71.796875 
Q 19.390625 75.984375 28.609375 75.984375 
z
" id="DejaVuSans-102"/>
     <path d="M 32.171875 -5.078125 
Q 28.375 -14.84375 24.75 -17.8125 
Q 21.140625 -20.796875 15.09375 -20.796875 
L 7.90625 -20.796875 
L 7.90625 -13.28125 
L 13.1875 -13.28125 
Q 16.890625 -13.28125 18.9375 -11.515625 
Q 21 -9.765625 23.484375 -3.21875 
L 25.09375 0.875 
L 2.984375 54.6875 
L 12.5 54.6875 
L 29.59375 11.921875 
L 46.6875 54.6875 
L 56.203125 54.6875 
z
" id="DejaVuSans-121"/>
     <path d="M 45.40625 46.390625 
L 45.40625 75.984375 
L 54.390625 75.984375 
L 54.390625 0 
L 45.40625 0 
L 45.40625 8.203125 
Q 42.578125 3.328125 38.25 0.953125 
Q 33.9375 -1.421875 27.875 -1.421875 
Q 17.96875 -1.421875 11.734375 6.484375 
Q 5.515625 14.40625 5.515625 27.296875 
Q 5.515625 40.1875 11.734375 48.09375 
Q 17.96875 56 27.875 56 
Q 33.9375 56 38.25 53.625 
Q 42.578125 51.265625 45.40625 46.390625 
z
M 14.796875 27.296875 
Q 14.796875 17.390625 18.875 11.75 
Q 22.953125 6.109375 30.078125 6.109375 
Q 37.203125 6.109375 41.296875 11.75 
Q 45.40625 17.390625 45.40625 27.296875 
Q 45.40625 37.203125 41.296875 42.84375 
Q 37.203125 48.484375 30.078125 48.484375 
Q 22.953125 48.484375 18.875 42.84375 
Q 14.796875 37.203125 14.796875 27.296875 
z
" id="DejaVuSans-100"/>
     <path d="M 8.5 21.578125 
L 8.5 54.6875 
L 17.484375 54.6875 
L 17.484375 21.921875 
Q 17.484375 14.15625 20.5 10.265625 
Q 23.53125 6.390625 29.59375 6.390625 
Q 36.859375 6.390625 41.078125 11.03125 
Q 45.3125 15.671875 45.3125 23.6875 
L 45.3125 54.6875 
L 54.296875 54.6875 
L 54.296875 0 
L 45.3125 0 
L 45.3125 8.40625 
Q 42.046875 3.421875 37.71875 1 
Q 33.40625 -1.421875 27.6875 -1.421875 
Q 18.265625 -1.421875 13.375 4.4375 
Q 8.5 10.296875 8.5 21.578125 
z
M 31.109375 56 
z
" id="DejaVuSans-117"/>
     <path d="M 34.28125 27.484375 
Q 23.390625 27.484375 19.1875 25 
Q 14.984375 22.515625 14.984375 16.5 
Q 14.984375 11.71875 18.140625 8.90625 
Q 21.296875 6.109375 26.703125 6.109375 
Q 34.1875 6.109375 38.703125 11.40625 
Q 43.21875 16.703125 43.21875 25.484375 
L 43.21875 27.484375 
z
M 52.203125 31.203125 
L 52.203125 0 
L 43.21875 0 
L 43.21875 8.296875 
Q 40.140625 3.328125 35.546875 0.953125 
Q 30.953125 -1.421875 24.3125 -1.421875 
Q 15.921875 -1.421875 10.953125 3.296875 
Q 6 8.015625 6 15.921875 
Q 6 25.140625 12.171875 29.828125 
Q 18.359375 34.515625 30.609375 34.515625 
L 43.21875 34.515625 
L 43.21875 35.40625 
Q 43.21875 41.609375 39.140625 45 
Q 35.0625 48.390625 27.6875 48.390625 
Q 23 48.390625 18.546875 47.265625 
Q 14.109375 46.140625 10.015625 43.890625 
L 10.015625 52.203125 
Q 14.9375 54.109375 19.578125 55.046875 
Q 24.21875 56 28.609375 56 
Q 40.484375 56 46.34375 49.84375 
Q 52.203125 43.703125 52.203125 31.203125 
z
" id="DejaVuSans-97"/>
    </defs>
    <g transform="translate(61.265882 92.645333)scale(0.15 -0.15)">
     <use transform="translate(0 0.015625)" xlink:href="#DejaVuSans-Oblique-112"/>
     <use transform="translate(63.476562 -16.390625)scale(0.7)" xlink:href="#DejaVuSans-Oblique-105"/>
     <use transform="translate(85.65918 0.015625)" xlink:href="#DejaVuSans-32"/>
     <use transform="translate(117.446289 0.015625)" xlink:href="#DejaVuSans-99"/>
     <use transform="translate(172.426758 0.015625)" xlink:href="#DejaVuSans-111"/>
     <use transform="translate(233.608398 0.015625)" xlink:href="#DejaVuSans-110"/>
     <use transform="translate(296.987305 0.015625)" xlink:href="#DejaVuSans-116"/>
     <use transform="translate(336.196289 0.015625)" xlink:href="#DejaVuSans-114"/>
     <use transform="translate(377.30957 0.015625)" xlink:href="#DejaVuSans-111"/>
     <use transform="translate(438.491211 0.015625)" xlink:href="#DejaVuSans-108"/>
     <use transform="translate(466.274414 0.015625)" xlink:href="#DejaVuSans-115"/>
     <use transform="translate(518.374023 0.015625)" xlink:href="#DejaVuSans-32"/>
     <use transform="translate(550.161133 0.015625)" xlink:href="#DejaVuSans-116"/>
     <use transform="translate(589.370117 0.015625)" xlink:href="#DejaVuSans-104"/>
     <use transform="translate(652.749023 0.015625)" xlink:href="#DejaVuSans-101"/>
     <use transform="translate(714.272461 0.015625)" xlink:href="#DejaVuSans-32"/>
     <use transform="translate(746.05957 0.015625)" xlink:href="#DejaVuSans-115"/>
     <use transform="translate(798.15918 0.015625)" xlink:href="#DejaVuSans-105"/>
     <use transform="translate(825.942383 0.015625)" xlink:href="#DejaVuSans-122"/>
     <use transform="translate(878.432617 0.015625)" xlink:href="#DejaVuSans-101"/>
     <use transform="translate(939.956055 0.015625)" xlink:href="#DejaVuSans-32"/>
     <use transform="translate(971.743164 0.015625)" xlink:href="#DejaVuSans-111"/>
     <use transform="translate(1032.924805 0.015625)" xlink:href="#DejaVuSans-102"/>
     <use transform="translate(1068.129883 0.015625)" xlink:href="#DejaVuSans-32"/>
     <use transform="translate(1099.916992 0.015625)" xlink:href="#DejaVuSans-116"/>
     <use transform="translate(1139.125977 0.015625)" xlink:href="#DejaVuSans-104"/>
     <use transform="translate(1202.504883 0.015625)" xlink:href="#DejaVuSans-101"/>
     <use transform="translate(1264.02832 0.015625)" xlink:href="#DejaVuSans-32"/>
     <use transform="translate(1295.81543 0.015625)" xlink:href="#DejaVuSans-121"/>
     <use transform="translate(1354.995117 0.015625)" xlink:href="#DejaVuSans-105"/>
     <use transform="translate(1382.77832 0.015625)" xlink:href="#DejaVuSans-101"/>
     <use transform="translate(1444.301758 0.015625)" xlink:href="#DejaVuSans-108"/>
     <use transform="translate(1472.084961 0.015625)" xlink:href="#DejaVuSans-100"/>
     <use transform="translate(1535.561523 0.015625)" xlink:href="#DejaVuSans-32"/>
     <use transform="translate(1567.348633 0.015625)" xlink:href="#DejaVuSans-115"/>
     <use transform="translate(1619.448242 0.015625)" xlink:href="#DejaVuSans-117"/>
     <use transform="translate(1682.827148 0.015625)" xlink:href="#DejaVuSans-114"/>
     <use transform="translate(1723.94043 0.015625)" xlink:href="#DejaVuSans-102"/>
     <use transform="translate(1759.145508 0.015625)" xlink:href="#DejaVuSans-97"/>
     <use transform="translate(1820.424805 0.015625)" xlink:href="#DejaVuSans-99"/>
     <use transform="translate(1875.405273 0.015625)" xlink:href="#DejaVuSans-101"/>
    </g>
   </g>
   <g id="legend_1">
    <g id="patch_7">
     <path d="M 371 62.895312 
L 443 62.895312 
Q 445 62.895312 445 60.895312 
L 445 17.8 
Q 445 15.8 443 15.8 
L 371 15.8 
Q 369 15.8 369 17.8 
L 369 60.895312 
Q 369 62.895312 371 62.895312 
z
" style="fill:#ffffff;opacity:0.8;stroke:#cccccc;stroke-linejoin:miter;"/>
    </g>
    <g id="line2d_24">
     <path d="M 373 23.898438 
L 393 23.898438 
" style="fill:none;stroke:#1f77b4;stroke-linecap:square;stroke-width:1.5;"/>
    </g>
    <g id="line2d_25"/>
    <g id="text_22">
     <!-- $p_i=100$ -->
     <g transform="translate(401 27.398438)scale(0.1 -0.1)">
      <use transform="translate(0 0.78125)" xlink:href="#DejaVuSans-Oblique-112"/>
      <use transform="translate(63.476562 -15.625)scale(0.7)" xlink:href="#DejaVuSans-Oblique-105"/>
      <use transform="translate(105.141602 0.78125)" xlink:href="#DejaVuSans-61"/>
      <use transform="translate(208.413086 0.78125)" xlink:href="#DejaVuSans-49"/>
      <use transform="translate(272.036133 0.78125)" xlink:href="#DejaVuSans-48"/>
      <use transform="translate(335.65918 0.78125)" xlink:href="#DejaVuSans-48"/>
     </g>
    </g>
    <g id="line2d_26">
     <path d="M 373 38.596875 
L 393 38.596875 
" style="fill:none;stroke:#ff7f0e;stroke-linecap:square;stroke-width:1.5;"/>
    </g>
    <g id="line2d_27"/>
    <g id="text_23">
     <!-- $p_i=200$ -->
     <g transform="translate(401 42.096875)scale(0.1 -0.1)">
      <use transform="translate(0 0.78125)" xlink:href="#DejaVuSans-Oblique-112"/>
      <use transform="translate(63.476562 -15.625)scale(0.7)" xlink:href="#DejaVuSans-Oblique-105"/>
      <use transform="translate(105.141602 0.78125)" xlink:href="#DejaVuSans-61"/>
      <use transform="translate(208.413086 0.78125)" xlink:href="#DejaVuSans-50"/>
      <use transform="translate(272.036133 0.78125)" xlink:href="#DejaVuSans-48"/>
      <use transform="translate(335.65918 0.78125)" xlink:href="#DejaVuSans-48"/>
     </g>
    </g>
    <g id="line2d_28">
     <path d="M 373 53.295313 
L 393 53.295313 
" style="fill:none;stroke:#2ca02c;stroke-linecap:square;stroke-width:1.5;"/>
    </g>
    <g id="line2d_29"/>
    <g id="text_24">
     <!-- $p_i=300$ -->
     <g transform="translate(401 56.795313)scale(0.1 -0.1)">
      <use transform="translate(0 0.78125)" xlink:href="#DejaVuSans-Oblique-112"/>
      <use transform="translate(63.476562 -15.625)scale(0.7)" xlink:href="#DejaVuSans-Oblique-105"/>
      <use transform="translate(105.141602 0.78125)" xlink:href="#DejaVuSans-61"/>
      <use transform="translate(208.413086 0.78125)" xlink:href="#DejaVuSans-51"/>
      <use transform="translate(272.036133 0.78125)" xlink:href="#DejaVuSans-48"/>
      <use transform="translate(335.65918 0.78125)" xlink:href="#DejaVuSans-48"/>
     </g>
    </g>
   </g>
  </g>
 </g>
 <defs>
  <clipPath id="p49af2736f4">
   <rect height="306.92" width="413.03" x="36.97" y="10.8"/>
  </clipPath>
 </defs>
</svg>
